<?xml version="1.0" encoding="UTF-8" standalone="no"?>
<!-- Created with Inkscape (http://www.inkscape.org/) -->

<svg
   width="500"
   height="130"
   viewBox="0 0 132.29166 34.395834"
   version="1.1"
   id="svg1"
   inkscape:version="1.3.1 (9b9bdc1480, 2023-11-25, custom)"
   sodipodi:docname="wormhole.svg"
   xmlns:inkscape="http://www.inkscape.org/namespaces/inkscape"
   xmlns:sodipodi="http://sodipodi.sourceforge.net/DTD/sodipodi-0.dtd"
   xmlns="http://www.w3.org/2000/svg"
   xmlns:svg="http://www.w3.org/2000/svg">
  <sodipodi:namedview
     id="namedview1"
     pagecolor="#ffffff"
     bordercolor="#eeeeee"
     borderopacity="1"
     inkscape:showpageshadow="0"
     inkscape:pageopacity="0"
     inkscape:pagecheckerboard="0"
     inkscape:deskcolor="#505050"
     inkscape:document-units="mm"
     inkscape:zoom="4.0000002"
     inkscape:cx="373.99998"
     inkscape:cy="113.24999"
     inkscape:window-width="1914"
     inkscape:window-height="1033"
     inkscape:window-x="1920"
     inkscape:window-y="44"
     inkscape:window-maximized="1"
     inkscape:current-layer="layer1"
     showgrid="false" />
  <defs
     id="defs1">
    <marker
       style="overflow:visible"
       id="ConcaveTriangle"
       refX="0"
       refY="0"
       orient="auto-start-reverse"
       inkscape:stockid="Concave triangle arrow"
       markerWidth="1"
       markerHeight="1"
       viewBox="0 0 1 1"
       inkscape:isstock="true"
       inkscape:collect="always"
       preserveAspectRatio="xMidYMid">
      <path
         transform="scale(0.7)"
         d="M -2,-4 9,0 -2,4 c 2,-2.33 2,-5.66 0,-8 z"
         style="fill:context-stroke;fill-rule:evenodd;stroke:none"
         id="path7" />
    </marker>
  </defs>
  <g
     inkscape:label="Слой 1"
     inkscape:groupmode="layer"
     id="layer1">
    <path
       style="fill:#000000;stroke:#000000;stroke-width:0.282646;stroke-linecap:round;stroke-linejoin:round;marker-end:url(#ConcaveTriangle);paint-order:stroke fill markers"
       d="m 81.759405,4.8740852 4e-4,24.4260058"
       id="path1"
       sodipodi:nodetypes="cc" />
    <text
       xml:space="preserve"
       style="font-size:3.52777px;fill:#00ff00;stroke:#ffffff;stroke-width:0.282001;stroke-linecap:round;stroke-linejoin:round;paint-order:stroke fill markers"
       x="65.32296"
       y="62.654007"
       id="text2"><tspan
         sodipodi:role="line"
         id="tspan2"
         style="stroke-width:0.282"
         x="65.32296"
         y="62.654007" /></text>
    <path
       style="fill:#000000;stroke:#000000;stroke-width:0.281989;stroke-linecap:round;stroke-linejoin:round;marker-end:url(#ConcaveTriangle);paint-order:stroke fill markers"
       d="M 51.669899,29.499158 51.377656,6.6085082"
       id="path4"
       sodipodi:nodetypes="cc" />
    <path
       style="fill:#000000;stroke:#000000;stroke-width:0.282001;stroke-linecap:round;stroke-linejoin:round;marker-end:url(#ConcaveTriangle);paint-order:stroke fill markers"
       d="m 53.566138,2.2802832 23.814156,0.246432"
       id="path5"
       sodipodi:nodetypes="cc" />
    <text
       xml:space="preserve"
       style="font-size:3.52777px;fill:#000000;stroke:none;stroke-width:0.28231;stroke-linecap:round;stroke-linejoin:round;paint-order:stroke fill markers"
       x="21.040703"
       y="33.43232"
       id="text6"><tspan
         sodipodi:role="line"
         id="tspan6"
         style="fill:#000000;stroke-width:0.28231"
         x="21.040703"
         y="33.43232">a</tspan></text>
    <text
       xml:space="preserve"
       style="font-size:3.52777px;fill:#00ff00;stroke:#ffffff;stroke-width:0.282001;stroke-linecap:round;stroke-linejoin:round;paint-order:stroke fill markers"
       x="47.990417"
       y="43.410603"
       id="text7"><tspan
         sodipodi:role="line"
         id="tspan7"
         style="stroke-width:0.282"
         x="47.990417"
         y="43.410603" /></text>
    <text
       xml:space="preserve"
       style="font-size:3.52777px;fill:#000000;stroke:none;stroke-width:0.28231;stroke-linecap:round;stroke-linejoin:round;paint-order:stroke fill markers"
       x="80.474304"
       y="34.346825"
       id="text8"><tspan
         sodipodi:role="line"
         id="tspan8"
         style="fill:#000000;stroke-width:0.28231"
         x="80.474304"
         y="34.346825">e</tspan></text>
    <text
       xml:space="preserve"
       style="font-size:3.52777px;fill:#000000;stroke:none;stroke-width:0.28231;stroke-linecap:round;stroke-linejoin:round;paint-order:stroke fill markers"
       x="50.285835"
       y="3.6973121"
       id="text9"><tspan
         sodipodi:role="line"
         id="tspan9"
         style="fill:#000000;stroke-width:0.28231"
         x="50.285835"
         y="3.6973121">c</tspan></text>
    <text
       xml:space="preserve"
       style="font-size:3.52777px;fill:#000000;stroke:none;stroke-width:0.28231;stroke-linecap:round;stroke-linejoin:round;paint-order:stroke fill markers"
       x="80.524742"
       y="3.5759847"
       id="text10"><tspan
         sodipodi:role="line"
         id="tspan10"
         style="fill:#000000;stroke-width:0.28231"
         x="80.524742"
         y="3.5759847">d</tspan></text>
    <text
       xml:space="preserve"
       style="font-size:3.52777px;fill:#00ff00;stroke:#ffffff;stroke-width:0.282001;stroke-linecap:round;stroke-linejoin:round;paint-order:stroke fill markers"
       x="109.35318"
       y="56.21957"
       id="text11"><tspan
         sodipodi:role="line"
         id="tspan11"
         style="stroke-width:0.282"
         x="109.35318"
         y="56.21957" /></text>
    <path
       style="fill:#000000;stroke:#000000;stroke-width:0.282001;stroke-linecap:round;stroke-linejoin:round;marker-end:url(#ConcaveTriangle);paint-order:stroke fill markers"
       d="m 53.526505,32.511661 23.748331,0.0562"
       id="path2"
       sodipodi:nodetypes="cc" />
    <path
       style="fill:#000000;stroke:#000000;stroke-width:0.282001;stroke-linecap:round;stroke-linejoin:round;marker-end:url(#ConcaveTriangle);paint-order:stroke fill markers"
       d="m 84.041362,32.770426 23.748338,0.0562"
       id="path3"
       sodipodi:nodetypes="cc" />
    <path
       style="fill:#000000;stroke:#000000;stroke-width:0.282001;stroke-linecap:round;stroke-linejoin:round;marker-end:url(#ConcaveTriangle);paint-order:stroke fill markers"
       d="m 24.275145,32.3076 23.74834,0.0562"
       id="path6"
       sodipodi:nodetypes="cc" />
    <text
       xml:space="preserve"
       style="font-size:3.52777px;fill:#000000;stroke:none;stroke-width:0.28231;stroke-linecap:round;stroke-linejoin:round;paint-order:stroke fill markers"
       x="50.347401"
       y="33.452179"
       id="text12"><tspan
         sodipodi:role="line"
         id="tspan12"
         style="fill:#000000;stroke-width:0.28231"
         x="50.347401"
         y="33.452179">b</tspan></text>
    <text
       xml:space="preserve"
       style="font-size:3.52777px;fill:#000000;stroke:none;stroke-width:0.28231;stroke-linecap:round;stroke-linejoin:round;paint-order:stroke fill markers"
       x="110.40585"
       y="34.06958"
       id="text13"><tspan
         sodipodi:role="line"
         id="tspan13"
         style="fill:#000000;stroke-width:0.28231"
         x="110.40585"
         y="34.06958">f</tspan></text>
    <path
       id="path2-9"
       style="fill:#ff6600;stroke:none;stroke-width:0.580005;stroke-linecap:round;stroke-linejoin:round;paint-order:stroke fill markers"
       d="m 101.33079,26.366321 c -1.467267,-6.1e-5 -2.656743,1.189414 -2.656681,2.656685 -6.2e-5,1.46727 1.189414,2.656747 2.656681,2.656685 1.46727,6.2e-5 2.65675,-1.189415 2.65669,-2.656685 6e-5,-1.467271 -1.18942,-2.656746 -2.65669,-2.656685 z m 0.61359,0.813673 c 0.42062,1.4e-4 0.76157,0.341087 0.76171,0.761711 1.5e-4,0.420824 -0.34088,0.762087 -0.76171,0.762227 -0.42102,1.46e-4 -0.76237,-0.341201 -0.76223,-0.762227 1.4e-4,-0.420826 0.34141,-0.761857 0.76223,-0.761711 z m -1.81229,0.01964 c 0.42082,1.39e-4 0.76186,0.341403 0.76171,0.762227 -1.4e-4,0.420624 -0.34109,0.761572 -0.76171,0.761711 -0.420819,1.46e-4 -0.762086,-0.340885 -0.762226,-0.761711 -1.4e-4,-0.421025 0.341197,-0.762373 0.762226,-0.762227 z m -0.268299,0.384207 c -0.19523,-2.6e-5 -0.35349,0.158242 -0.35347,0.353467 -2e-5,0.195226 0.15824,0.353493 0.35347,0.353467 0.195219,2.6e-5 0.353489,-0.158242 0.353469,-0.353467 2e-5,-0.195225 -0.15825,-0.353493 -0.353469,-0.353467 z m 1.741489,0 c -0.19522,-2.6e-5 -0.35349,0.158242 -0.35346,0.353467 -3e-5,0.195225 0.15824,0.353493 0.35346,0.353467 0.19523,2.6e-5 0.3535,-0.158241 0.35347,-0.353467 3e-5,-0.195225 -0.15824,-0.353493 -0.35347,-0.353467 z m -0.92768,2.201395 h 0.85473 0.85524 c 4e-5,0.305455 -0.16286,0.587734 -0.42736,0.740524 -0.26461,0.152813 -0.59064,0.152813 -0.85525,0 -0.2645,-0.15279 -0.4274,-0.435069 -0.42736,-0.740524 z"
       sodipodi:nodetypes="cccccsssssssssscccccccccccccccc" />
    <path
       id="path8"
       style="fill:#ff6600;stroke:none;stroke-width:0.580005;stroke-linecap:round;stroke-linejoin:round;paint-order:stroke fill markers"
       d="m 94.863204,26.099312 c -1.46727,-6.1e-5 -2.656747,1.189414 -2.656685,2.656685 -6.2e-5,1.46727 1.189415,2.656747 2.656685,2.656685 1.467271,6.2e-5 2.656746,-1.189415 2.656686,-2.656685 6e-5,-1.467271 -1.189415,-2.656746 -2.656686,-2.656685 z m 1.136882,0.838708 c 0.420622,1.4e-4 0.761571,0.341087 0.76171,0.76171 1.46e-4,0.420825 -0.340886,0.762088 -0.76171,0.762228 -0.421027,1.46e-4 -0.762374,-0.341201 -0.762228,-0.762228 1.39e-4,-0.420825 0.341403,-0.761856 0.762228,-0.76171 z m -1.812293,0.01964 c 0.420825,1.39e-4 0.761857,0.341403 0.761711,0.762227 -1.39e-4,0.420624 -0.341087,0.761572 -0.761711,0.761711 -0.420824,1.46e-4 -0.762088,-0.340885 -0.762227,-0.761711 -1.46e-4,-0.421025 0.341201,-0.762373 0.762227,-0.762227 z m 0.314193,0.609265 c -0.195225,-2.6e-5 -0.353493,0.158242 -0.353467,0.353467 -2.6e-5,0.195226 0.158242,0.353493 0.353467,0.353467 0.195225,2.6e-5 0.353493,-0.158242 0.353467,-0.353467 2.6e-5,-0.195225 -0.158242,-0.353493 -0.353467,-0.353467 z m 1.741496,0 c -0.195225,-2.6e-5 -0.353493,0.158242 -0.353467,0.353467 -2.6e-5,0.195225 0.158242,0.353493 0.353467,0.353467 0.195225,2.6e-5 0.353493,-0.158241 0.353467,-0.353467 2.6e-5,-0.195225 -0.158242,-0.353493 -0.353467,-0.353467 z m -1.165821,1.756482 a 0.72632349,0.72632349 0 0 1 0.726571,0.726571 0.72632349,0.72632349 0 0 1 -0.726571,0.726053 0.72632349,0.72632349 0 0 1 -0.726053,-0.726053 0.72632349,0.72632349 0 0 1 0.726053,-0.726571 z" />
    <path
       id="path9"
       style="fill:#ff6600;stroke-width:0.204248;stroke-linecap:round;stroke-linejoin:round;stroke-dasharray:0.612743, 0.612743;paint-order:stroke fill markers"
       d="m 103.14574,17.146288 c -1.12212,0 -2.02572,0.903599 -2.02572,2.025716 V 21.3543 c 0,1.122116 0.9036,2.025199 2.02572,2.025199 l -0.73536,2.376082 3.27319,-2.376082 h 4.38371 c 1.12212,0 2.02572,-0.903083 2.02572,-2.025199 v -2.182296 c 0,-1.122117 -0.9036,-2.025716 -2.02572,-2.025716 z m 3.54449,1.139982 c 0.36961,0 0.66212,0.08396 0.87746,0.252698 0.21534,0.167128 0.32298,0.394015 0.32298,0.680061 0,0.199268 -0.057,0.367711 -0.17105,0.505913 -0.1141,0.136595 -0.27628,0.231706 -0.48679,0.284737 0.23301,0.04982 0.4145,0.153089 0.54467,0.310575 0.13177,0.157486 0.1974,0.352019 0.1974,0.583427 0,0.355147 -0.12212,0.630309 -0.36638,0.824756 -0.24427,0.194447 -0.59132,0.291455 -1.04128,0.291455 -0.15106,0 -0.30698,-0.01546 -0.46768,-0.04599 -0.15909,-0.02893 -0.32368,-0.07283 -0.49402,-0.132292 v -0.470255 c 0.13498,0.07874 0.28268,0.138108 0.44338,0.178283 0.1607,0.04018 0.32868,0.06046 0.50385,0.06046 0.30533,0 0.5375,-0.06034 0.69659,-0.180868 0.1607,-0.120525 0.24133,-0.295748 0.24133,-0.525549 0,-0.212124 -0.0748,-0.377692 -0.22427,-0.49661 -0.14785,-0.120525 -0.35445,-0.180351 -0.6196,-0.180351 h -0.4191 v -0.400493 h 0.43822 c 0.23944,0 0.42288,-0.0473 0.54983,-0.14211 0.12696,-0.09642 0.19069,-0.234461 0.19069,-0.414445 0,-0.184805 -0.0662,-0.326236 -0.19792,-0.424263 -0.13017,-0.09963 -0.31746,-0.149862 -0.56172,-0.149862 -0.13338,0 -0.27625,0.01448 -0.42892,0.04341 -0.15266,0.02893 -0.32064,0.07433 -0.50384,0.135393 v -0.434082 c 0.1848,-0.05142 0.35761,-0.09004 0.51831,-0.115756 0.16231,-0.02571 0.31483,-0.03824 0.45786,-0.03824 z" />
    <path
       id="path14"
       style="fill:#ff6600;stroke-width:0.204248;stroke-linecap:round;stroke-linejoin:round;stroke-dasharray:0.612743, 0.612743;paint-order:stroke fill markers"
       d="m 87.827197,16.238891 c -1.122124,0 -2.025716,0.9036 -2.025716,2.025716 v 2.182296 c 0,1.122115 0.903592,2.025199 2.025716,2.025199 l 4.306714,0.09095 2.060339,2.618961 0.554489,-2.709912 c 1.122118,0 2.025716,-0.903084 2.025716,-2.025199 v -2.182296 c 0,-1.122116 -0.903598,-2.025716 -2.025716,-2.025716 z m 2.788977,1.09399 h 1.867587 v 0.400492 h -1.431954 v 0.861963 c 0.06908,-0.02355 0.138138,-0.0412 0.207222,-0.05219 0.06909,-0.01256 0.138138,-0.0186 0.207223,-0.0186 0.392524,0 0.703525,0.107357 0.932759,0.322461 0.229235,0.215103 0.343649,0.506445 0.343649,0.873848 0,0.378394 -0.117436,0.672757 -0.352951,0.88315 -0.235514,0.208823 -0.567684,0.313159 -0.996321,0.313159 -0.147589,0 -0.298299,-0.0126 -0.452169,-0.03772 -0.1523,-0.02512 -0.310066,-0.06241 -0.473356,-0.112655 v -0.478524 c 0.141309,0.07693 0.287487,0.1344 0.438216,0.172083 0.15073,0.03768 0.310006,0.05684 0.478007,0.05684 0.271627,0 0.486859,-0.07158 0.645439,-0.214457 0.15858,-0.142879 0.237711,-0.336942 0.237711,-0.581877 0,-0.244936 -0.07913,-0.438998 -0.237711,-0.581877 -0.15858,-0.142879 -0.373812,-0.21394 -0.645439,-0.21394 -0.127178,0 -0.254711,0.01411 -0.381889,0.04237 -0.125608,0.02826 -0.254134,0.07211 -0.386023,0.131775 z" />
    <path
       id="path8-7"
       style="fill:#00ccff;fill-opacity:1;stroke:none;stroke-width:0.580005;stroke-linecap:round;stroke-linejoin:round;paint-order:stroke fill markers"
       d="m 125.67708,3.4664551 c -1.46727,-6.1e-5 -2.65674,1.1894148 -2.65668,2.6566854 -6e-5,1.4672705 1.18941,2.6567473 2.65668,2.6566853 1.46727,6.2e-5 2.65675,-1.1894148 2.65669,-2.6566853 6e-5,-1.4672706 -1.18942,-2.6567464 -2.65669,-2.6566854 z m 0.53899,1.0066569 c 0.42062,1.4e-4 0.76157,0.341087 0.76171,0.7617106 1.4e-4,0.4208246 -0.34089,0.7620874 -0.76171,0.7622274 -0.42103,1.46e-4 -0.76237,-0.3412008 -0.76223,-0.7622274 1.4e-4,-0.4208256 0.3414,-0.7618566 0.76223,-0.7617106 z m -1.81229,0.019637 c 0.42082,1.39e-4 0.76185,0.3414028 0.76171,0.7622274 -1.4e-4,0.4206236 -0.34109,0.7615716 -0.76171,0.7617106 -0.42083,1.46e-4 -0.76209,-0.340885 -0.76223,-0.7617106 -1.5e-4,-0.4210256 0.3412,-0.7623734 0.76223,-0.7622274 z m -0.21808,0.6237346 c -0.19522,-2.6e-5 -0.35349,0.158242 -0.35347,0.3534668 -2e-5,0.1952258 0.15825,0.3534928 0.35347,0.3534668 0.19523,2.6e-5 0.35349,-0.158242 0.35347,-0.3534668 2e-5,-0.1952248 -0.15824,-0.3534928 -0.35347,-0.3534668 z m 1.82366,0 c -0.19522,-2.6e-5 -0.35349,0.158242 -0.35346,0.3534668 -3e-5,0.1952248 0.15824,0.3534928 0.35346,0.3534668 0.19523,2.6e-5 0.3535,-0.158241 0.35347,-0.3534668 3e-5,-0.1952248 -0.15824,-0.3534928 -0.35347,-0.3534668 z"
       sodipodi:nodetypes="cccccsssssssssscccccccccc" />
  </g>
</svg>
