<?xml version="1.0" encoding="UTF-8" standalone="no"?>
<!-- Created with Inkscape (http://www.inkscape.org/) -->

<svg
   width="800"
   height="350"
   viewBox="0 0 211.66666 92.604164"
   version="1.1"
   id="svg1"
   inkscape:version="1.2.2 (b0a8486541, 2022-12-01)"
   sodipodi:docname="internal-observers.svg"
   xmlns:inkscape="http://www.inkscape.org/namespaces/inkscape"
   xmlns:sodipodi="http://sodipodi.sourceforge.net/DTD/sodipodi-0.dtd"
   xmlns="http://www.w3.org/2000/svg"
   xmlns:svg="http://www.w3.org/2000/svg">
  <sodipodi:namedview
     id="namedview1"
     pagecolor="#ffffff"
     bordercolor="#eeeeee"
     borderopacity="1"
     inkscape:showpageshadow="0"
     inkscape:pageopacity="0"
     inkscape:pagecheckerboard="0"
     inkscape:deskcolor="#505050"
     inkscape:document-units="mm"
     inkscape:zoom="1.4142136"
     inkscape:cx="395.97978"
     inkscape:cy="263.75082"
     inkscape:window-width="1914"
     inkscape:window-height="1033"
     inkscape:window-x="1920"
     inkscape:window-y="44"
     inkscape:window-maximized="1"
     inkscape:current-layer="layer1"
     showgrid="true" />
  <defs
     id="defs1">
    <marker
       style="overflow:visible"
       id="ConcaveTriangle"
       refX="0"
       refY="0"
       orient="auto-start-reverse"
       inkscape:stockid="Concave triangle arrow"
       markerWidth="1"
       markerHeight="1"
       viewBox="0 0 1 1"
       inkscape:isstock="true"
       inkscape:collect="always"
       preserveAspectRatio="xMidYMid">
      <path
         transform="scale(0.7)"
         d="M -2,-4 9,0 -2,4 c 2,-2.33 2,-5.66 0,-8 z"
         style="fill:context-stroke;fill-rule:evenodd;stroke:none"
         id="path7" />
    </marker>
  </defs>
  <g
     inkscape:label="Ğ¡Ğ»Ğ¾Ğ¹ 1"
     inkscape:groupmode="layer"
     id="layer1">
    <text
       xml:space="preserve"
       style="font-size:3.52777px;fill:#00ff00;stroke:#ffffff;stroke-width:0.282001;stroke-linecap:round;stroke-linejoin:round;paint-order:stroke fill markers"
       x="65.32296"
       y="62.654007"
       id="text2"><tspan
         sodipodi:role="line"
         id="tspan2"
         style="stroke-width:0.282"
         x="65.32296"
         y="62.654007" /></text>
    <text
       xml:space="preserve"
       style="font-size:3.52777px;fill:#00ff00;stroke:#ffffff;stroke-width:0.282001;stroke-linecap:round;stroke-linejoin:round;paint-order:stroke fill markers"
       x="47.990417"
       y="43.410603"
       id="text7"><tspan
         sodipodi:role="line"
         id="tspan7"
         style="stroke-width:0.282"
         x="47.990417"
         y="43.410603" /></text>
    <text
       xml:space="preserve"
       style="font-size:3.52777px;fill:#00ff00;stroke:#ffffff;stroke-width:0.282001;stroke-linecap:round;stroke-linejoin:round;paint-order:stroke fill markers"
       x="109.35318"
       y="56.21957"
       id="text11"><tspan
         sodipodi:role="line"
         id="tspan11"
         style="stroke-width:0.282"
         x="109.35318"
         y="56.21957" /></text>
    <rect
       style="fill:#ffffff;fill-opacity:1;stroke:none;stroke-width:0.264999;stroke-linejoin:bevel;paint-order:stroke fill markers"
       id="rect59555"
       width="211.66666"
       height="92.604164"
       x="0"
       y="0"
       rx="2.1260972"
       ry="1.3288108" />
    <path
       id="path12"
       style="fill:#ff6600;stroke:none;stroke-width:0.580005;stroke-linecap:round;stroke-linejoin:round;paint-order:stroke fill markers"
       d="m 102.47918,77.25348 c -1.46727,-6.1e-5 -2.656743,1.189415 -2.656683,2.656686 -6e-5,1.46727 1.189413,2.656747 2.656683,2.656685 1.46727,6.2e-5 2.65675,-1.189415 2.65669,-2.656685 6e-5,-1.467271 -1.18942,-2.656747 -2.65669,-2.656686 z m 1.13688,0.838709 c 0.42063,1.4e-4 0.76159,0.341087 0.76172,0.76171 1.5e-4,0.420825 -0.34089,0.762088 -0.76172,0.762228 -0.42102,1.46e-4 -0.76237,-0.341201 -0.76222,-0.762228 1.4e-4,-0.420825 0.3414,-0.761856 0.76222,-0.76171 z m -1.81229,0.01964 c 0.42083,1.39e-4 0.76186,0.341403 0.76171,0.762227 -1.4e-4,0.420624 -0.34108,0.761572 -0.76171,0.761711 -0.42082,1.46e-4 -0.76209,-0.340885 -0.76223,-0.761711 -1.4e-4,-0.421025 0.3412,-0.762373 0.76223,-0.762227 z m 0.30526,0.5307 c -0.19522,-2.6e-5 -0.3535,0.158242 -0.35347,0.353467 -3e-5,0.195226 0.15825,0.353493 0.35347,0.353467 0.19523,2.6e-5 0.35349,-0.158242 0.35347,-0.353467 2e-5,-0.195225 -0.15824,-0.353493 -0.35347,-0.353467 z m 1.75701,-0.02521 c -0.19523,-2.6e-5 -0.35349,0.158242 -0.35347,0.353467 -2e-5,0.195225 0.15824,0.353493 0.35347,0.353467 0.19521,2.6e-5 0.35349,-0.158241 0.35346,-0.353467 3e-5,-0.195225 -0.15825,-0.353493 -0.35346,-0.353467 z m -2.00232,2.207997 h 0.71675 0.71623 c -1e-4,0.255817 -0.13659,0.492171 -0.35811,0.620118 -0.22162,0.127899 -0.49462,0.127899 -0.71624,0 -0.22172,-0.127815 -0.35843,-0.364194 -0.35863,-0.620118 z"
       sodipodi:nodetypes="cccccscsssssssscccccccccccccccc" />
    <path
       style="fill:#000000;stroke:#000000;stroke-width:0.282001;stroke-linecap:round;stroke-linejoin:round;marker-end:url(#ConcaveTriangle);paint-order:stroke fill markers"
       d="m 63.278535,84.596784 22.488133,0.05506"
       id="path26"
       sodipodi:nodetypes="cc" />
    <path
       id="path13"
       style="fill:#ff6600;fill-opacity:1;stroke:none;stroke-width:0.580005;stroke-linecap:round;stroke-linejoin:round;paint-order:stroke fill markers"
       d="m 103.54302,11.656554 c 0.59223,-2.5e-5 1.13901,0.194321 1.58078,0.521932 0.3468,-0.02379 0.61967,-0.148589 0.96531,-0.49041 -0.004,0.580262 -0.11025,0.917554 -0.27388,1.248503 0.24392,0.401606 0.38449,0.872446 0.38447,1.37666 6e-5,1.467269 -1.18942,2.656748 -2.65668,2.656686 -1.46727,6.2e-5 -2.65675,-1.189417 -2.65669,-2.656686 -2e-5,-0.495025 0.13579,-0.957666 0.37155,-1.354439 -0.16271,-0.329905 -0.26868,-0.66653 -0.27233,-1.244885 0.33884,0.335084 0.60749,0.462107 0.94464,0.489375 0.44729,-0.342377 1.00603,-0.546761 1.61283,-0.546736 z m -0.36742,1.132747 c -0.42063,1.4e-4 -0.76158,0.341088 -0.76171,0.761711 -1.5e-4,0.420824 0.34088,0.762087 0.76171,0.762227 0.42102,1.46e-4 0.76237,-0.341201 0.76222,-0.762227 -1.4e-4,-0.420825 -0.3414,-0.761857 -0.76222,-0.761711 z m 1.81229,0.01964 c -0.42083,1.39e-4 -0.76186,0.341404 -0.76171,0.762228 1.4e-4,0.420623 0.34108,0.761571 0.76171,0.76171 0.42082,1.46e-4 0.76209,-0.340885 0.76223,-0.76171 1.4e-4,-0.421025 -0.3412,-0.762374 -0.76223,-0.762228 z m 0.27532,0.410766 c 0.19522,-2.6e-5 0.3535,0.158242 0.35347,0.353467 3e-5,0.195226 -0.15825,0.353493 -0.35347,0.353467 -0.19523,2.6e-5 -0.35348,-0.158242 -0.35346,-0.353467 -2e-5,-0.195225 0.15823,-0.353493 0.35346,-0.353467 z m -1.80001,0.01464 c 0.19523,-2.6e-5 0.35349,0.158242 0.35347,0.353466 2e-5,0.195225 -0.15824,0.353493 -0.35347,0.353467 -0.19522,2.6e-5 -0.35349,-0.158241 -0.35346,-0.353467 -3e-5,-0.195224 0.15824,-0.353492 0.35346,-0.353466 z"
       sodipodi:nodetypes="cccccccccccscscsscssscccccccccc" />
    <path
       id="path16"
       style="fill:#ff6600;fill-opacity:1;stroke:none;stroke-width:0.580005;stroke-linecap:round;stroke-linejoin:round;paint-order:stroke fill markers"
       d="m 102.6795,54.427121 c -1.46727,-6.1e-5 -2.65675,1.189415 -2.65669,2.656685 -4e-5,1.055995 0.61608,1.967901 1.50844,2.396236 0.1205,0.376415 0.27784,0.70281 0.71055,1.141016 0.002,-0.401349 0.0739,-0.663372 0.22738,-0.889868 0.002,1.21e-4 0.003,3.97e-4 0.005,5.16e-4 0.22586,0.370681 0.64897,1.225965 1.17615,1.53479 -0.11323,-0.432257 -0.2529,-1.203653 -0.16898,-1.60817 0.26706,0.228085 0.56283,0.407713 1.09709,0.554488 -0.24295,-0.426263 -0.29128,-0.723489 -0.22169,-1.068669 0.5978,-0.487148 0.97982,-1.229059 0.97979,-2.060339 6e-5,-1.46727 -1.18942,-2.656746 -2.65669,-2.656685 z m -0.36742,1.132747 c 0.42082,-1.46e-4 0.76209,0.340886 0.76223,0.761711 1.5e-4,0.421026 -0.34121,0.762373 -0.76223,0.762227 -0.42083,-1.4e-4 -0.76186,-0.341403 -0.76171,-0.762227 1.3e-4,-0.420623 0.34108,-0.761571 0.76171,-0.761711 z m 1.81229,0.01964 c 0.42103,-1.46e-4 0.76237,0.341203 0.76223,0.762227 -1.4e-4,0.420826 -0.34141,0.761857 -0.76223,0.761711 -0.42063,-1.39e-4 -0.76157,-0.341087 -0.76171,-0.761711 -1.5e-4,-0.420823 0.34088,-0.762088 0.76171,-0.762227 z m 0.23456,0.420215 c -0.19523,-2.6e-5 -0.35349,0.158242 -0.35347,0.353467 -2e-5,0.195225 0.15824,0.353493 0.35347,0.353467 0.19522,2.6e-5 0.35349,-0.158241 0.35346,-0.353467 3e-5,-0.195225 -0.15824,-0.353493 -0.35346,-0.353467 z m -1.81231,-0.01755 c -0.19522,-2.6e-5 -0.35298,0.158242 -0.35295,0.353466 -3e-5,0.195226 0.15773,0.353493 0.35295,0.353467 0.19523,2.6e-5 0.354,-0.158242 0.35398,-0.353467 2e-5,-0.195224 -0.15875,-0.353492 -0.35398,-0.353466 z"
       sodipodi:nodetypes="cccccccccccccssscsssssscccccccccc" />
    <path
       id="path23"
       style="fill:#ff6600;stroke:none;stroke-width:0.580005;stroke-linecap:round;stroke-linejoin:round;paint-order:stroke fill markers"
       d="m 104.09711,33.166599 c -0.29799,-9.5e-5 -0.53959,0.241504 -0.5395,0.539502 3e-5,0.155148 0.0669,0.302768 0.18345,0.405143 -1.37849,0.09745 -2.46708,1.245613 -2.46702,2.648934 -6e-5,1.467268 1.18942,2.656747 2.65667,2.656685 1.46727,6.2e-5 2.65675,-1.189417 2.65669,-2.656685 5e-5,-1.304976 -0.94087,-2.389211 -2.18126,-2.613277 0.14385,-0.100732 0.22965,-0.265191 0.22996,-0.4408 1e-4,-0.297799 -0.24119,-0.539315 -0.53899,-0.539502 z m 0.97049,1.775602 c 0.42063,1.4e-4 0.76158,0.341088 0.76171,0.761711 1.5e-4,0.420824 -0.34088,0.762087 -0.76171,0.762227 -0.42102,1.46e-4 -0.76238,-0.341201 -0.76223,-0.762227 1.4e-4,-0.420825 0.34141,-0.761857 0.76223,-0.761711 z m -1.8123,0.01964 c 0.42083,1.39e-4 0.76186,0.341404 0.76171,0.762227 -1.4e-4,0.420624 -0.34108,0.761572 -0.76171,0.761711 -0.42081,1.46e-4 -0.76207,-0.340885 -0.76221,-0.761711 -1.4e-4,-0.421024 0.34119,-0.762373 0.76221,-0.762227 z m 2.07513,0.525069 c -0.19523,-2.5e-5 -0.35349,0.158242 -0.35347,0.353467 -2e-5,0.195225 0.15824,0.353493 0.35347,0.353467 0.19521,2.6e-5 0.35349,-0.158241 0.35346,-0.353467 3e-5,-0.195225 -0.15825,-0.353492 -0.35346,-0.353467 z m -1.82338,0.0134 c -0.19522,-2.6e-5 -0.3535,0.158242 -0.35347,0.353467 -3e-5,0.195226 0.15825,0.353493 0.35347,0.353467 0.19522,2.6e-5 0.35348,-0.158242 0.35346,-0.353467 2e-5,-0.195225 -0.15824,-0.353493 -0.35346,-0.353467 z"
       sodipodi:nodetypes="cccccccccscsssssssscccccccccc" />
    <path
       style="fill:#000000;stroke:#000000;stroke-width:0.282001;stroke-linecap:round;stroke-linejoin:round;marker-end:url(#ConcaveTriangle);paint-order:stroke fill markers"
       d="m 92.372494,84.516096 22.488136,0.05506"
       id="path16381"
       sodipodi:nodetypes="cc" />
    <path
       style="fill:#000000;stroke:#000000;stroke-width:0.282001;stroke-linecap:round;stroke-linejoin:round;marker-end:url(#ConcaveTriangle);paint-order:stroke fill markers"
       d="m 120.36542,84.257926 22.48813,0.05506"
       id="path16383"
       sodipodi:nodetypes="cc" />
    <text
       xml:space="preserve"
       style="font-size:3.52777px;fill:#000000;stroke:none;stroke-width:0.28231;stroke-linecap:round;stroke-linejoin:round;paint-order:stroke fill markers"
       x="117.35175"
       y="85.532837"
       id="text16387"><tspan
         sodipodi:role="line"
         id="tspan16385"
         style="fill:#000000;stroke-width:0.28231"
         x="117.35175"
         y="85.532837">c</tspan></text>
    <text
       xml:space="preserve"
       style="font-size:3.52777px;fill:#000000;stroke:none;stroke-width:0.28231;stroke-linecap:round;stroke-linejoin:round;paint-order:stroke fill markers"
       x="59.626408"
       y="85.751358"
       id="text16391"><tspan
         sodipodi:role="line"
         id="tspan16389"
         style="fill:#000000;stroke-width:0.28231"
         x="59.626408"
         y="85.751358">a</tspan></text>
    <text
       xml:space="preserve"
       style="font-size:3.52777px;fill:#000000;stroke:none;stroke-width:0.28231;stroke-linecap:round;stroke-linejoin:round;paint-order:stroke fill markers"
       x="88.447304"
       y="86.080727"
       id="text17243"><tspan
         sodipodi:role="line"
         id="tspan17241"
         style="fill:#000000;stroke-width:0.28231"
         x="88.447304"
         y="86.080727">b</tspan></text>
    <text
       xml:space="preserve"
       style="font-size:3.52777px;fill:#000000;stroke:none;stroke-width:0.28231;stroke-linecap:round;stroke-linejoin:round;paint-order:stroke fill markers"
       x="145.66353"
       y="85.219414"
       id="text17985"><tspan
         sodipodi:role="line"
         id="tspan17983"
         style="fill:#000000;stroke-width:0.28231"
         x="145.66353"
         y="85.219414">d</tspan></text>
    <path
       style="fill:#000000;stroke:#000000;stroke-width:0.282001;stroke-linecap:round;stroke-linejoin:round;marker-end:url(#ConcaveTriangle);paint-order:stroke fill markers"
       d="m 62.727083,63.076405 22.488133,0.05506"
       id="path18001"
       sodipodi:nodetypes="cc" />
    <path
       style="fill:#000000;stroke:#000000;stroke-width:0.282001;stroke-linecap:round;stroke-linejoin:round;marker-end:url(#ConcaveTriangle);paint-order:stroke fill markers"
       d="m 91.821042,62.995717 22.488138,0.05506"
       id="path18003"
       sodipodi:nodetypes="cc" />
    <text
       xml:space="preserve"
       style="font-size:3.52777px;fill:#000000;stroke:none;stroke-width:0.28231;stroke-linecap:round;stroke-linejoin:round;paint-order:stroke fill markers"
       x="116.8003"
       y="64.012459"
       id="text18009"><tspan
         sodipodi:role="line"
         id="tspan18007"
         style="fill:#000000;stroke-width:0.28231"
         x="116.8003"
         y="64.012459">g</tspan></text>
    <text
       xml:space="preserve"
       style="font-size:3.52777px;fill:#000000;stroke:none;stroke-width:0.28231;stroke-linecap:round;stroke-linejoin:round;paint-order:stroke fill markers"
       x="59.074955"
       y="64.23098"
       id="text18013"><tspan
         id="tspan18011"
         style="fill:#000000;stroke-width:0.28231"
         x="59.074955"
         y="64.23098"
         sodipodi:role="line">e</tspan></text>
    <text
       xml:space="preserve"
       style="font-size:3.52777px;fill:#000000;stroke:none;stroke-width:0.28231;stroke-linecap:round;stroke-linejoin:round;paint-order:stroke fill markers"
       x="87.895851"
       y="64.560341"
       id="text18017"><tspan
         sodipodi:role="line"
         id="tspan18015"
         style="fill:#000000;stroke-width:0.28231"
         x="87.895851"
         y="64.560341">f</tspan></text>
    <path
       style="fill:#000000;stroke:#000000;stroke-width:0.282001;stroke-linecap:round;stroke-linejoin:round;marker-end:url(#ConcaveTriangle);paint-order:stroke fill markers"
       d="M 65.072357,33.148567 86.33135,40.065869"
       id="path18115"
       sodipodi:nodetypes="cc" />
    <path
       style="fill:#000000;stroke:#000000;stroke-width:0.282001;stroke-linecap:round;stroke-linejoin:round;marker-end:url(#ConcaveTriangle);paint-order:stroke fill markers"
       d="m 93.162336,40.744135 22.488134,0.05506"
       id="path18117"
       sodipodi:nodetypes="cc" />
    <path
       style="fill:#000000;stroke:#000000;stroke-width:0.282001;stroke-linecap:round;stroke-linejoin:round;marker-end:url(#ConcaveTriangle);paint-order:stroke fill markers"
       d="m 122.97205,40.88435 18.87636,4.161879"
       id="path18119"
       sodipodi:nodetypes="cc" />
    <text
       xml:space="preserve"
       style="font-size:3.52777px;fill:#000000;stroke:none;stroke-width:0.28231;stroke-linecap:round;stroke-linejoin:round;paint-order:stroke fill markers"
       x="118.14159"
       y="41.760876"
       id="text18123"><tspan
         sodipodi:role="line"
         id="tspan18121"
         style="fill:#000000;stroke-width:0.28231"
         x="118.14159"
         y="41.760876">m</tspan></text>
    <text
       xml:space="preserve"
       style="font-size:3.52777px;fill:#000000;stroke:none;stroke-width:0.28231;stroke-linecap:round;stroke-linejoin:round;paint-order:stroke fill markers"
       x="59.818851"
       y="32.45034"
       id="text18127"><tspan
         sodipodi:role="line"
         id="tspan18125"
         style="fill:#000000;stroke-width:0.28231"
         x="59.818851"
         y="32.45034">k</tspan></text>
    <text
       xml:space="preserve"
       style="font-size:3.52777px;fill:#000000;stroke:none;stroke-width:0.28231;stroke-linecap:round;stroke-linejoin:round;paint-order:stroke fill markers"
       x="89.237144"
       y="42.308762"
       id="text18131"><tspan
         sodipodi:role="line"
         id="tspan18129"
         style="fill:#000000;stroke-width:0.28231"
         x="89.237144"
         y="42.308762">l</tspan></text>
    <text
       xml:space="preserve"
       style="font-size:3.52777px;fill:#000000;stroke:none;stroke-width:0.28231;stroke-linecap:round;stroke-linejoin:round;paint-order:stroke fill markers"
       x="145.02135"
       y="46.560341"
       id="text18135"><tspan
         sodipodi:role="line"
         id="tspan18133"
         style="fill:#000000;stroke-width:0.28231"
         x="145.02135"
         y="46.560341">n</tspan></text>
    <path
       style="fill:#000000;stroke:#000000;stroke-width:0.282001;stroke-linecap:round;stroke-linejoin:round;marker-end:url(#ConcaveTriangle);paint-order:stroke fill markers"
       d="M 65.039272,30.132901 86.020875,20.609407"
       id="path18137"
       sodipodi:nodetypes="cc" />
    <path
       style="fill:#000000;stroke:#000000;stroke-width:0.282001;stroke-linecap:round;stroke-linejoin:round;marker-end:url(#ConcaveTriangle);paint-order:stroke fill markers"
       d="m 92.427303,18.800975 22.488137,0.05506"
       id="path18139"
       sodipodi:nodetypes="cc" />
    <path
       style="fill:#000000;stroke:#000000;stroke-width:0.282001;stroke-linecap:round;stroke-linejoin:round;marker-end:url(#ConcaveTriangle);paint-order:stroke fill markers"
       d="m 120.42023,18.542805 23.19038,22.143019"
       id="path18141"
       sodipodi:nodetypes="cc" />
    <text
       xml:space="preserve"
       style="font-size:3.52777px;fill:#000000;stroke:none;stroke-width:0.28231;stroke-linecap:round;stroke-linejoin:round;paint-order:stroke fill markers"
       x="117.40656"
       y="19.817715"
       id="text18145"><tspan
         sodipodi:role="line"
         id="tspan18143"
         style="fill:#000000;stroke-width:0.28231"
         x="117.40656"
         y="19.817715">q</tspan></text>
    <text
       xml:space="preserve"
       style="font-size:3.52777px;fill:#000000;stroke:none;stroke-width:0.28231;stroke-linecap:round;stroke-linejoin:round;paint-order:stroke fill markers"
       x="88.502113"
       y="20.365601"
       id="text18153"><tspan
         sodipodi:role="line"
         id="tspan18151"
         style="fill:#000000;stroke-width:0.28231"
         x="88.502113"
         y="20.365601">p</tspan></text>
    <path
       style="fill:#000000;stroke:#000000;stroke-width:0.282001;stroke-linecap:round;stroke-linejoin:round;marker-end:url(#ConcaveTriangle);paint-order:stroke fill markers"
       d="M 119.81397,62.737547 142.9696,49.38657"
       id="path21111"
       sodipodi:nodetypes="cc" />
    <path
       id="rect39298"
       style="fill:#ffe680;stroke:none;stroke-width:0.264999;stroke-linejoin:bevel;paint-order:stroke fill markers"
       d="m 176.21885,3.9925328 17.05657,-0.2585829 c 0.73608,-0.011159 1.32881,0.5926497 1.32881,1.3288109 V 22.09445 c 0,0.736161 -0.59287,1.310357 -1.32881,1.328811 l -11.83836,0.258583 -4.05372,2.650952 -0.5998,-2.650952 h -0.56469 c -0.73616,0 -1.32881,-0.59265 -1.32881,-1.328811 V 5.3213437 c 0,-0.7361612 0.59273,-1.3176517 1.32881,-1.3288109 z"
       sodipodi:nodetypes="ssssscccssss" />
    <path
       id="path34"
       style="fill:#00ccff;fill-opacity:1;stroke:none;stroke-width:0.580005;stroke-linecap:round;stroke-linejoin:round;paint-order:stroke fill markers"
       d="m 176.41648,26.332796 c -1.46727,-6.1e-5 -2.65675,1.189415 -2.65669,2.656686 -6e-5,1.46727 1.18942,2.656747 2.65669,2.656685 1.46727,6.2e-5 2.65675,-1.189415 2.65669,-2.656685 6e-5,-1.467271 -1.18942,-2.656747 -2.65669,-2.656686 z m 0.92957,1.165618 c 0.42063,1.4e-4 0.76158,0.341088 0.76171,0.761711 1.5e-4,0.420825 -0.34088,0.762087 -0.76171,0.762227 -0.42102,1.46e-4 -0.76238,-0.3412 -0.76223,-0.762227 1.4e-4,-0.420825 0.34141,-0.761857 0.76223,-0.761711 z m -1.81229,0.01964 c 0.42083,1.39e-4 0.76186,0.341404 0.76171,0.762228 -1.4e-4,0.420624 -0.34108,0.761571 -0.76171,0.76171 -0.42082,1.46e-4 -0.76209,-0.340884 -0.76223,-0.76171 -1.4e-4,-0.421025 0.3412,-0.762374 0.76223,-0.762228 z m -0.26445,0.572584 c -0.19522,-2.6e-5 -0.35349,0.158242 -0.35346,0.353467 -3e-5,0.195226 0.15824,0.353493 0.35346,0.353467 0.19523,2.6e-5 0.35349,-0.158242 0.35347,-0.353467 2e-5,-0.195225 -0.15824,-0.353493 -0.35347,-0.353467 z m 1.80238,9.58e-4 c -0.19523,-2.6e-5 -0.35349,0.158242 -0.35347,0.353467 -2e-5,0.195225 0.15824,0.353493 0.35347,0.353467 0.19522,2.6e-5 0.35349,-0.158241 0.35346,-0.353467 3e-5,-0.195225 -0.15824,-0.353493 -0.35346,-0.353467 z"
       sodipodi:nodetypes="cccccscsssssssscccccccccc" />
    <text
       xml:space="preserve"
       style="font-style:normal;font-variant:normal;font-weight:normal;font-stretch:normal;font-size:2.82222px;line-height:1;font-family:'DejaVu Sans Mono';-inkscape-font-specification:'DejaVu Sans Mono';text-align:start;text-anchor:start;fill:#0b0b0b;fill-opacity:1;stroke:none;stroke-width:0.264999;stroke-linejoin:bevel;paint-order:stroke fill markers"
       x="177.7923"
       y="7.457108"
       id="text38238"
       transform="scale(0.99907805,1.0009228)"><tspan
         sodipodi:role="line"
         style="font-style:normal;font-variant:normal;font-weight:normal;font-stretch:normal;font-size:2.82222px;font-family:'DejaVu Sans Mono';-inkscape-font-specification:'DejaVu Sans Mono';text-align:start;text-anchor:start;fill:#0b0b0b;fill-opacity:1;stroke:none;stroke-width:0.265"
         x="177.7923"
         y="7.457108"
         id="tspan38448">{</tspan><tspan
         sodipodi:role="line"
         style="font-style:normal;font-variant:normal;font-weight:normal;font-stretch:normal;font-size:2.82222px;font-family:'DejaVu Sans Mono';-inkscape-font-specification:'DejaVu Sans Mono';text-align:start;text-anchor:start;fill:#0b0b0b;fill-opacity:1;stroke:none;stroke-width:0.265"
         x="177.7923"
         y="10.279328"
         id="tspan40149"> a&gt;b&gt;c&gt;d,</tspan><tspan
         sodipodi:role="line"
         style="font-style:normal;font-variant:normal;font-weight:normal;font-stretch:normal;font-size:2.82222px;font-family:'DejaVu Sans Mono';-inkscape-font-specification:'DejaVu Sans Mono';text-align:start;text-anchor:start;fill:#0b0b0b;fill-opacity:1;stroke:none;stroke-width:0.265"
         x="177.7923"
         y="13.101548"
         id="tspan40147"> e&gt;f&gt;g&gt;n,</tspan><tspan
         sodipodi:role="line"
         style="font-style:normal;font-variant:normal;font-weight:normal;font-stretch:normal;font-size:2.82222px;font-family:'DejaVu Sans Mono';-inkscape-font-specification:'DejaVu Sans Mono';text-align:start;text-anchor:start;fill:#0b0b0b;fill-opacity:1;stroke:none;stroke-width:0.265"
         x="177.7923"
         y="15.923768"
         id="tspan40151"> k&gt;l&gt;m&gt;n,</tspan><tspan
         sodipodi:role="line"
         style="font-style:normal;font-variant:normal;font-weight:normal;font-stretch:normal;font-size:2.82222px;font-family:'DejaVu Sans Mono';-inkscape-font-specification:'DejaVu Sans Mono';text-align:start;text-anchor:start;fill:#0b0b0b;fill-opacity:1;stroke:none;stroke-width:0.265"
         x="177.7923"
         y="18.745989"
         id="tspan38450"> k&gt;p&gt;q&gt;n</tspan><tspan
         sodipodi:role="line"
         style="font-style:normal;font-variant:normal;font-weight:normal;font-stretch:normal;font-size:2.82222px;font-family:'DejaVu Sans Mono';-inkscape-font-specification:'DejaVu Sans Mono';text-align:start;text-anchor:start;fill:#0b0b0b;fill-opacity:1;stroke:none;stroke-width:0.265"
         x="177.7923"
         y="21.568209"
         id="tspan38454">}</tspan></text>
    <path
       id="rect39298-3"
       style="fill:#ffe680;stroke:none;stroke-width:0.264999;stroke-linejoin:bevel;paint-order:stroke fill markers"
       d="m 104.28415,1.2064331 h 16.72162 c 0.73617,0 1.32881,0.5926497 1.32881,1.328811 v 4.0503818 c 0,0.736161 -0.59264,1.328811 -1.32881,1.328811 h -11.50341 l -4.05372,2.6509521 -0.5998,-2.6509521 h -0.56469 c -0.73616,0 -1.32881,-0.59265 -1.32881,-1.328811 V 2.5352441 c 0,-0.7361613 0.59265,-1.328811 1.32881,-1.328811 z"
       sodipodi:nodetypes="ssssscccssss" />
    <text
       xml:space="preserve"
       style="font-style:normal;font-variant:normal;font-weight:normal;font-stretch:normal;font-size:3.175px;line-height:1;font-family:'DejaVu Sans Mono';-inkscape-font-specification:'DejaVu Sans Mono';text-align:start;text-anchor:start;fill:#0b0b0b;fill-opacity:1;stroke:none;stroke-width:0.264999;stroke-linejoin:bevel;paint-order:stroke fill markers"
       x="104.98182"
       y="5.4308391"
       id="text40174"
       transform="scale(0.99907805,1.0009228)"><tspan
         sodipodi:role="line"
         style="font-style:normal;font-variant:normal;font-weight:normal;font-stretch:normal;font-size:3.175px;font-family:'DejaVu Sans Mono';-inkscape-font-specification:'DejaVu Sans Mono';text-align:start;text-anchor:start;fill:#0b0b0b;fill-opacity:1;stroke:none;stroke-width:0.265"
         x="104.98182"
         y="5.4308391"
         id="tspan40172">{k&gt;p,  }</tspan></text>
    <path
       id="path43170"
       style="fill:#ff6600;stroke:none;stroke-width:0.580006;stroke-linecap:round;stroke-linejoin:round;paint-order:stroke fill markers"
       d="m 116.40415,2.920852 c -0.15143,-4.84e-5 -0.27419,0.1227196 -0.27414,0.2741446 1e-5,0.078839 0.034,0.1538495 0.0932,0.2058708 -0.70048,0.049519 -1.25364,0.6329507 -1.25361,1.3460396 -3e-5,0.745583 0.6044,1.3500095 1.34998,1.3499779 0.74558,3.16e-5 1.35001,-0.6043949 1.34998,-1.3499779 2e-5,-0.6631157 -0.4781,-1.2140629 -1.1084,-1.3279207 0.0731,-0.051185 0.1167,-0.1347557 0.11686,-0.2239897 5e-5,-0.1513248 -0.12256,-0.2740496 -0.27389,-0.2741446 z m 0.49315,0.9022611 c 0.21374,7.11e-5 0.38699,0.1733212 0.38706,0.3870587 8e-5,0.2138393 -0.17321,0.3872499 -0.38706,0.3873209 -0.21394,7.43e-5 -0.3874,-0.1733789 -0.38732,-0.3873209 7e-5,-0.2138395 0.17348,-0.3871329 0.38732,-0.3870587 z m -0.92091,0.00998 c 0.21384,7.05e-5 0.38714,0.1734831 0.38706,0.3873209 -7e-5,0.2137376 -0.17332,0.3869882 -0.38706,0.3870587 -0.21383,7.42e-5 -0.38724,-0.173219 -0.38732,-0.3870587 -7e-5,-0.2139408 0.17339,-0.3873951 0.38732,-0.3873209 z m 1.05446,0.2668105 c -0.0992,-1.26e-5 -0.17962,0.080409 -0.1796,0.1796119 -10e-6,0.099203 0.0804,0.1796254 0.1796,0.1796119 0.0992,1.31e-5 0.17963,-0.080409 0.17961,-0.1796119 1e-5,-0.099202 -0.0804,-0.1796254 -0.17961,-0.1796119 z m -0.92654,0.0068 c -0.0992,-1.33e-5 -0.17962,0.080409 -0.1796,0.1796119 -2e-5,0.099203 0.0804,0.1796254 0.1796,0.1796119 0.0992,1.31e-5 0.17963,-0.080409 0.17961,-0.1796119 1e-5,-0.099203 -0.0804,-0.1796253 -0.17961,-0.1796119 z"
       sodipodi:nodetypes="cccccccccscsssssssscccccccccc" />
    <text
       xml:space="preserve"
       style="font-style:normal;font-variant:normal;font-weight:normal;font-stretch:normal;font-size:1.73894px;line-height:1;font-family:'DejaVu Sans Mono';-inkscape-font-specification:'DejaVu Sans Mono';text-align:start;text-anchor:start;fill:#0b0b0b;fill-opacity:1;stroke:none;stroke-width:0.264999;stroke-linejoin:bevel;paint-order:stroke fill markers"
       x="53.108246"
       y="48.860569"
       id="text44670"
       transform="scale(0.99907805,1.0009228)"><tspan
         sodipodi:role="line"
         style="font-style:normal;font-variant:normal;font-weight:normal;font-stretch:normal;font-family:'DejaVu Sans Mono';-inkscape-font-specification:'DejaVu Sans Mono';text-align:start;text-anchor:start;fill:#0b0b0b;fill-opacity:1;stroke:none;stroke-width:0.265"
         x="53.108246"
         y="48.860569"
         id="tspan44668" /></text>
    <path
       id="path91984"
       style="fill:#ffe680;stroke:none;stroke-width:0.264999;stroke-linejoin:bevel;paint-order:stroke fill markers"
       d="m 104.52235,23.807643 h 16.72162 c 0.73617,0 1.32881,0.592649 1.32881,1.328811 v 4.050381 c 0,0.736161 -0.59264,1.328811 -1.32881,1.328811 h -11.50341 l -4.05372,2.650953 -0.5998,-2.650953 h -0.56469 c -0.73616,0 -1.32881,-0.59265 -1.32881,-1.328811 v -4.050381 c 0,-0.736162 0.59265,-1.328811 1.32881,-1.328811 z"
       sodipodi:nodetypes="ssssscccssss" />
    <text
       xml:space="preserve"
       style="font-style:normal;font-variant:normal;font-weight:normal;font-stretch:normal;font-size:3.175px;line-height:1;font-family:'DejaVu Sans Mono';-inkscape-font-specification:'DejaVu Sans Mono';text-align:start;text-anchor:start;fill:#0b0b0b;fill-opacity:1;stroke:none;stroke-width:0.264999;stroke-linejoin:bevel;paint-order:stroke fill markers"
       x="105.22024"
       y="28.011211"
       id="text91988"
       transform="scale(0.99907805,1.0009228)"><tspan
         sodipodi:role="line"
         style="font-style:normal;font-variant:normal;font-weight:normal;font-stretch:normal;font-size:3.175px;font-family:'DejaVu Sans Mono';-inkscape-font-specification:'DejaVu Sans Mono';text-align:start;text-anchor:start;fill:#0b0b0b;fill-opacity:1;stroke:none;stroke-width:0.265"
         x="105.22024"
         y="28.011211"
         id="tspan91986">{k&gt;l,  }</tspan></text>
    <path
       id="path92094"
       style="fill:#ff6600;fill-opacity:1;stroke:none;stroke-width:0.580005;stroke-linecap:round;stroke-linejoin:round;paint-order:stroke fill markers"
       d="m 116.2324,25.37369 c 0.33663,-1.4e-5 0.64742,0.110454 0.89853,0.296673 0.19713,-0.01352 0.35223,-0.08446 0.5487,-0.278755 -0.002,0.329828 -0.0627,0.521549 -0.15568,0.709665 0.13865,0.228278 0.21855,0.495909 0.21854,0.782511 3e-5,0.834015 -0.67608,1.510131 -1.51009,1.510095 -0.83402,3.6e-5 -1.51014,-0.67608 -1.5101,-1.510095 -1e-5,-0.281378 0.0772,-0.544349 0.21119,-0.76988 -0.0925,-0.187523 -0.15272,-0.378865 -0.15479,-0.70761 0.1926,0.190466 0.3453,0.262669 0.53694,0.278168 0.25425,-0.194612 0.57184,-0.310786 0.91676,-0.310772 z m -0.20885,0.643868 c -0.23909,8e-5 -0.43289,0.193879 -0.43297,0.432967 -8e-5,0.239201 0.19376,0.43318 0.43297,0.433259 0.23931,8.3e-5 0.43334,-0.193943 0.43326,-0.433259 -8e-5,-0.239203 -0.19406,-0.43305 -0.43326,-0.432967 z m 1.03013,0.01116 c -0.23921,7.9e-5 -0.43305,0.194058 -0.43297,0.43326 8e-5,0.239088 0.19388,0.432887 0.43297,0.432967 0.2392,8.3e-5 0.43318,-0.193764 0.43326,-0.432967 8e-5,-0.239315 -0.19394,-0.433343 -0.43326,-0.43326 z m 0.1565,0.233485 c 0.11096,-1.5e-5 0.20093,0.08995 0.20091,0.200915 2e-5,0.110969 -0.09,0.200931 -0.20091,0.200915 -0.11097,1.6e-5 -0.20093,-0.08995 -0.20091,-0.200915 -2e-5,-0.110968 0.0899,-0.20093 0.20091,-0.200915 z m -1.02316,0.0083 c 0.11097,-1.5e-5 0.20093,0.08995 0.20092,0.200914 1e-5,0.110969 -0.09,0.20093 -0.20092,0.200915 -0.11096,1.5e-5 -0.20093,-0.08995 -0.20091,-0.200915 -2e-5,-0.110968 0.09,-0.200929 0.20091,-0.200914 z"
       sodipodi:nodetypes="cccccccccccscscsscssscccccccccc" />
    <path
       id="path92096"
       style="fill:#ffe680;stroke:none;stroke-width:0.264999;stroke-linejoin:bevel;paint-order:stroke fill markers"
       d="m 102.61934,44.731863 h 16.72161 c 0.73617,0 1.32881,0.592649 1.32881,1.328811 v 4.050381 c 0,0.736161 -0.59264,1.328811 -1.32881,1.328811 h -11.5034 l -4.05372,2.650953 -0.5998,-2.650953 h -0.56469 c -0.73616,0 -1.32881,-0.59265 -1.32881,-1.328811 v -4.050381 c 0,-0.736162 0.59265,-1.328811 1.32881,-1.328811 z"
       sodipodi:nodetypes="ssssscccssss" />
    <text
       xml:space="preserve"
       style="font-style:normal;font-variant:normal;font-weight:normal;font-stretch:normal;font-size:3.175px;line-height:1;font-family:'DejaVu Sans Mono';-inkscape-font-specification:'DejaVu Sans Mono';text-align:start;text-anchor:start;fill:#0b0b0b;fill-opacity:1;stroke:none;stroke-width:0.264999;stroke-linejoin:bevel;paint-order:stroke fill markers"
       x="106.0753"
       y="48.916142"
       id="text92100"
       transform="scale(0.99907805,1.0009228)"><tspan
         sodipodi:role="line"
         style="font-style:normal;font-variant:normal;font-weight:normal;font-stretch:normal;font-size:3.175px;font-family:'DejaVu Sans Mono';-inkscape-font-specification:'DejaVu Sans Mono';text-align:start;text-anchor:start;fill:#0b0b0b;fill-opacity:1;stroke:none;stroke-width:0.265"
         x="106.0753"
         y="48.916142"
         id="tspan92098">{e&gt;f}</tspan></text>
    <path
       id="path92102"
       style="fill:#ffe680;stroke:none;stroke-width:0.264999;stroke-linejoin:bevel;paint-order:stroke fill markers"
       d="m 102.40954,67.894524 h 16.72162 c 0.73617,0 1.32881,0.592649 1.32881,1.328811 v 4.050381 c 0,0.736161 -0.59264,1.328811 -1.32881,1.328811 h -11.50341 l -4.05372,2.650953 -0.5998,-2.650953 h -0.56469 c -0.73616,0 -1.32881,-0.59265 -1.32881,-1.328811 v -4.050381 c 0,-0.736162 0.59265,-1.328811 1.32881,-1.328811 z"
       sodipodi:nodetypes="ssssscccssss" />
    <text
       xml:space="preserve"
       style="font-style:normal;font-variant:normal;font-weight:normal;font-stretch:normal;font-size:3.175px;line-height:1;font-family:'DejaVu Sans Mono';-inkscape-font-specification:'DejaVu Sans Mono';text-align:start;text-anchor:start;fill:#0b0b0b;fill-opacity:1;stroke:none;stroke-width:0.264999;stroke-linejoin:bevel;paint-order:stroke fill markers"
       x="105.86532"
       y="72.057449"
       id="text92106"
       transform="scale(0.99907805,1.0009228)"><tspan
         sodipodi:role="line"
         style="font-style:normal;font-variant:normal;font-weight:normal;font-stretch:normal;font-size:3.175px;font-family:'DejaVu Sans Mono';-inkscape-font-specification:'DejaVu Sans Mono';text-align:start;text-anchor:start;fill:#0b0b0b;fill-opacity:1;stroke:none;stroke-width:0.265"
         x="105.86532"
         y="72.057449"
         id="tspan92104">{a&gt;b}</tspan></text>
  </g>
</svg>
