<?xml version="1.0" encoding="UTF-8" standalone="no"?>
<!-- Created with Inkscape (http://www.inkscape.org/) -->

<svg
   width="800"
   height="400"
   viewBox="0 0 211.66666 105.83333"
   version="1.1"
   id="svg1"
   inkscape:version="1.2.2 (b0a8486541, 2022-12-01)"
   sodipodi:docname="relative_time.svg"
   xmlns:inkscape="http://www.inkscape.org/namespaces/inkscape"
   xmlns:sodipodi="http://sodipodi.sourceforge.net/DTD/sodipodi-0.dtd"
   xmlns="http://www.w3.org/2000/svg"
   xmlns:svg="http://www.w3.org/2000/svg">
  <sodipodi:namedview
     id="namedview1"
     pagecolor="#ffffff"
     bordercolor="#eeeeee"
     borderopacity="1"
     inkscape:showpageshadow="0"
     inkscape:pageopacity="0"
     inkscape:pagecheckerboard="0"
     inkscape:deskcolor="#505050"
     inkscape:document-units="mm"
     inkscape:zoom="2.0000001"
     inkscape:cx="266.99999"
     inkscape:cy="186.99999"
     inkscape:window-width="1914"
     inkscape:window-height="1033"
     inkscape:window-x="1920"
     inkscape:window-y="44"
     inkscape:window-maximized="1"
     inkscape:current-layer="layer1"
     showgrid="false">
    <inkscape:grid
       type="xygrid"
       id="grid135674"
       originx="0"
       originy="0" />
  </sodipodi:namedview>
  <defs
     id="defs1">
    <marker
       style="overflow:visible"
       id="ConcaveTriangle"
       refX="0"
       refY="0"
       orient="auto-start-reverse"
       inkscape:stockid="Concave triangle arrow"
       markerWidth="1"
       markerHeight="1"
       viewBox="0 0 1 1"
       inkscape:isstock="true"
       inkscape:collect="always"
       preserveAspectRatio="xMidYMid">
      <path
         transform="scale(0.7)"
         d="M -2,-4 9,0 -2,4 c 2,-2.33 2,-5.66 0,-8 z"
         style="fill:context-stroke;fill-rule:evenodd;stroke:none"
         id="path7" />
    </marker>
  </defs>
  <g
     inkscape:label="Слой 1"
     inkscape:groupmode="layer"
     id="layer1">
    <text
       xml:space="preserve"
       style="font-size:3.52777px;fill:#00ff00;stroke:#ffffff;stroke-width:0.282001;stroke-linecap:round;stroke-linejoin:round;paint-order:stroke fill markers"
       x="65.32296"
       y="62.654007"
       id="text2"><tspan
         sodipodi:role="line"
         id="tspan2"
         style="stroke-width:0.282"
         x="65.32296"
         y="62.654007" /></text>
    <g
       id="g17917"
       transform="scale(1.5999999,1.1428572)"
       style="stroke-width:0.73951"
       sodipodi:insensitive="true">
      <rect
         style="fill:#ffffff;stroke-width:0.195969;stroke-linejoin:bevel;paint-order:stroke fill markers"
         id="rect15505"
         width="132.29167"
         height="92.604164"
         x="0"
         y="0" />
    </g>
    <text
       xml:space="preserve"
       style="font-size:3.52777px;fill:#00ff00;stroke:#ffffff;stroke-width:0.282001;stroke-linecap:round;stroke-linejoin:round;paint-order:stroke fill markers"
       x="47.990417"
       y="43.410603"
       id="text7"><tspan
         sodipodi:role="line"
         id="tspan7"
         style="stroke-width:0.282"
         x="47.990417"
         y="43.410603" /></text>
    <text
       xml:space="preserve"
       style="font-size:3.52777px;fill:#00ff00;stroke:#ffffff;stroke-width:0.282001;stroke-linecap:round;stroke-linejoin:round;paint-order:stroke fill markers"
       x="109.35318"
       y="56.21957"
       id="text11"><tspan
         sodipodi:role="line"
         id="tspan11"
         style="stroke-width:0.282"
         x="109.35318"
         y="56.21957" /></text>
    <path
       id="path34"
       style="fill:#00ccff;fill-opacity:1;stroke:none;stroke-width:0.580005;stroke-linecap:round;stroke-linejoin:round;paint-order:stroke fill markers"
       d="m 8.3167577,44.601054 c 1.46727,-6.2e-5 2.6567503,1.189414 2.6566893,2.656685 6.1e-5,1.46727 -1.1894193,2.656747 -2.6566893,2.656685 -1.46727,6.3e-5 -2.65675,-1.189415 -2.65669,-2.656684 -6e-5,-1.467272 1.18942,-2.656747 2.65669,-2.656686 z m -0.36726,1.132544 c -0.42063,1.41e-4 -0.76158,0.341088 -0.76171,0.761711 -1.5e-4,0.420825 0.34088,0.762088 0.76171,0.762228 0.42102,1.46e-4 0.762381,-0.341202 0.762231,-0.762229 -1.4e-4,-0.420824 -0.341411,-0.761855 -0.762231,-0.76171 z m 1.81229,0.01964 c -0.42083,1.39e-4 -0.76186,0.341404 -0.76171,0.762227 1.4e-4,0.420623 0.34108,0.761572 0.76171,0.761712 0.4208203,1.46e-4 0.7620903,-0.340886 0.7622303,-0.761711 1.39e-4,-0.421027 -0.3412,-0.762374 -0.7622303,-0.762228 z m 0.201575,0.472363 c 0.1952203,-2.8e-5 0.3534903,0.158242 0.3534603,0.353467 3e-5,0.195226 -0.158241,0.353494 -0.3534603,0.353467 -0.195229,3e-5 -0.35349,-0.158242 -0.353471,-0.353467 -1.8e-5,-0.195225 0.158241,-0.353493 0.353471,-0.353467 z m -1.77656,0.0043 c 0.195231,-2e-5 0.35349,0.158242 0.35347,0.353467 1.9e-5,0.195226 -0.15824,0.353494 -0.35347,0.353467 -0.19522,2.8e-5 -0.353491,-0.158241 -0.35346,-0.353467 -2.9e-5,-0.195225 0.15824,-0.353492 0.35346,-0.353467 z"
       sodipodi:nodetypes="cccccscsssssssscccccccccc" />
    <text
       xml:space="preserve"
       style="font-size:3.52777px;fill:#000000;stroke:none;stroke-width:0.28231;stroke-linecap:round;stroke-linejoin:round;paint-order:stroke fill markers"
       x="65.373581"
       y="60.449505"
       id="text26685"><tspan
         sodipodi:role="line"
         id="tspan26683"
         style="fill:#000000;stroke-width:0.28231"
         x="65.373581"
         y="60.449505">b</tspan></text>
    <path
       style="fill:#000000;stroke:#000000;stroke-width:0.282001;stroke-linecap:round;stroke-linejoin:round;marker-end:url(#ConcaveTriangle);paint-order:stroke fill markers"
       d="M 69.419373,58.211927 82.069337,54.822378"
       id="path26687"
       sodipodi:nodetypes="cc" />
    <text
       xml:space="preserve"
       style="font-size:28.2223px;line-height:1;font-family:'Droid Sans Fallback';-inkscape-font-specification:'Droid Sans Fallback';text-align:center;text-anchor:middle;fill:#999999;stroke:#999999;stroke-width:0.264999;stroke-linejoin:bevel;paint-order:stroke fill markers"
       x="122.12111"
       y="64.193878"
       id="text29951"><tspan
         sodipodi:role="line"
         id="tspan29949"
         style="stroke-width:0.265"
         x="122.12111"
         y="64.193878" /></text>
    <text
       xml:space="preserve"
       style="font-size:3.52777px;fill:#000000;stroke:none;stroke-width:0.28231;stroke-linecap:round;stroke-linejoin:round;paint-order:stroke fill markers"
       x="86.003075"
       y="55.026684"
       id="text135662"><tspan
         sodipodi:role="line"
         id="tspan135660"
         style="fill:#000000;stroke-width:0.28231"
         x="86.003075"
         y="55.026684">bc1</tspan></text>
    <path
       style="fill:#000000;stroke:#000000;stroke-width:0.282001;stroke-linecap:round;stroke-linejoin:round;marker-end:url(#ConcaveTriangle);paint-order:stroke fill markers"
       d="M 92.873981,52.273941 105.52395,48.884393"
       id="path135676"
       sodipodi:nodetypes="cc" />
    <text
       xml:space="preserve"
       style="font-size:3.52777px;fill:#b3b3b3;stroke:none;stroke-width:0.28231;stroke-linecap:round;stroke-linejoin:round;paint-order:stroke fill markers"
       x="75.819565"
       y="26.948149"
       id="text135680"><tspan
         sodipodi:role="line"
         id="tspan135678"
         style="fill:#b3b3b3;stroke-width:0.28231"
         x="75.819565"
         y="26.948149">bc2</tspan></text>
    <path
       style="fill:#000000;stroke:#000000;stroke-width:0.282001;stroke-linecap:round;stroke-linejoin:round;marker-end:url(#ConcaveTriangle);paint-order:stroke fill markers"
       d="M 116.62944,46.782402 129.2794,43.392855"
       id="path135682"
       sodipodi:nodetypes="cc" />
    <text
       xml:space="preserve"
       style="font-size:3.52777px;fill:#b3b3b3;stroke:none;stroke-width:0.28231;stroke-linecap:round;stroke-linejoin:round;paint-order:stroke fill markers"
       x="103.10911"
       y="23.181324"
       id="text135692"><tspan
         sodipodi:role="line"
         id="tspan135690"
         style="fill:#b3b3b3;stroke-width:0.28231"
         x="103.10911"
         y="23.181324">bc3</tspan></text>
    <text
       xml:space="preserve"
       style="font-size:3.52777px;fill:#000000;stroke:none;stroke-width:0.28231;stroke-linecap:round;stroke-linejoin:round;paint-order:stroke fill markers"
       x="109.37353"
       y="49.080952"
       id="text135698"><tspan
         sodipodi:role="line"
         id="tspan135696"
         style="fill:#000000;stroke-width:0.28231"
         x="109.37353"
         y="49.080952">bc4</tspan></text>
    <text
       xml:space="preserve"
       style="font-size:3.52777px;fill:#000000;stroke:none;stroke-width:0.28231;stroke-linecap:round;stroke-linejoin:round;paint-order:stroke fill markers"
       x="131.8774"
       y="43.228119"
       id="text136444"><tspan
         sodipodi:role="line"
         id="tspan136442"
         style="fill:#000000;stroke-width:0.28231"
         x="131.8774"
         y="43.228119">c</tspan></text>
    <path
       style="fill:none;stroke:#b3b3b3;stroke-width:0.282001;stroke-linecap:round;stroke-linejoin:round;marker-end:url(#ConcaveTriangle);paint-order:stroke fill markers"
       d="M 86.43089,50.340162 C 82.71527,47.002831 81.023631,38.44273 86.913675,33.426649"
       id="path139415"
       sodipodi:nodetypes="cc" />
    <text
       xml:space="preserve"
       style="font-size:3.52777px;fill:#b3b3b3;stroke:none;stroke-width:0.28231;stroke-linecap:round;stroke-linejoin:round;paint-order:stroke fill markers"
       x="89.085388"
       y="31.849226"
       id="text139419"><tspan
         sodipodi:role="line"
         id="tspan139417"
         style="fill:#b3b3b3;stroke-width:0.28231"
         x="89.085388"
         y="31.849226">bc1bc4</tspan></text>
    <path
       style="fill:none;stroke:#b3b3b3;stroke-width:0.282001;stroke-linecap:round;stroke-linejoin:round;marker-end:url(#ConcaveTriangle);paint-order:stroke fill markers"
       d="m 102.10213,30.423106 c 8.0716,1.323282 10.82833,8.382156 9.65645,13.496895"
       id="path140159"
       sodipodi:nodetypes="cc" />
    <path
       id="path155169"
       style="fill:#ff6600;stroke:none;stroke-width:0.580005;stroke-linecap:round;stroke-linejoin:round;paint-order:stroke fill markers"
       d="m 124.29261,38.02895 c -1.46727,-6.1e-5 -2.65674,1.189417 -2.65668,2.656687 -5e-5,1.467269 1.18942,2.656746 2.65668,2.656683 1.46728,6.2e-5 2.65676,-1.189415 2.6567,-2.656686 5e-5,-1.467268 -1.18943,-2.656745 -2.6567,-2.656684 z m 1.13689,0.838709 c 0.42062,1.4e-4 0.76159,0.341087 0.76172,0.76171 1.5e-4,0.420823 -0.3409,0.762088 -0.76173,0.762229 -0.42102,1.46e-4 -0.76237,-0.341202 -0.76221,-0.76223 1.4e-4,-0.420824 0.3414,-0.761857 0.76222,-0.761709 z m -1.81229,0.01964 c 0.42082,1.4e-4 0.76186,0.341404 0.7617,0.762229 -1.4e-4,0.420623 -0.34107,0.76157 -0.76171,0.76171 -0.42081,1.44e-4 -0.76208,-0.340886 -0.76223,-0.761711 -1.3e-4,-0.421026 0.3412,-0.762373 0.76224,-0.762228 z m 0.30525,0.530702 c -0.19521,-2.5e-5 -0.3535,0.158244 -0.35347,0.353466 -7e-5,0.195237 0.15828,0.353485 0.35347,0.353467 0.19523,2.2e-5 0.35349,-0.158241 0.35347,-0.353467 7e-5,-0.195238 -0.15818,-0.353507 -0.35347,-0.353466 z m 1.75702,-0.02521 c -0.19523,-2.2e-5 -0.35349,0.158242 -0.35347,0.353466 -7e-5,0.195239 0.15828,0.353482 0.35347,0.353468 0.1952,2.7e-5 0.35348,-0.158242 0.35345,-0.353467 8e-5,-0.195237 -0.15828,-0.353484 -0.35345,-0.353467 z m -2.00233,2.207998 0.71675,-10e-7 0.71624,-2e-6 c -9e-5,0.255816 -0.13659,0.492172 -0.35812,0.620119 -0.22161,0.127897 -0.49462,0.127876 -0.71624,2e-6 -0.22172,-0.127816 -0.35842,-0.364196 -0.35863,-0.620118 z"
       sodipodi:nodetypes="cccccscsssssssscccccccccccccccc" />
    <path
       style="fill:#000000;stroke:#000000;stroke-width:0.282001;stroke-linecap:round;stroke-linejoin:round;marker-end:url(#ConcaveTriangle);paint-order:stroke fill markers"
       d="m 68.473022,60.215276 12.649964,3.389546"
       id="path155909"
       sodipodi:nodetypes="cc" />
    <path
       style="fill:#000000;stroke:#000000;stroke-width:0.282001;stroke-linecap:round;stroke-linejoin:round;marker-end:url(#ConcaveTriangle);paint-order:stroke fill markers"
       d="m 91.691583,66.521504 12.649967,3.389547"
       id="path155911"
       sodipodi:nodetypes="cc" />
    <path
       style="fill:#000000;stroke:#000000;stroke-width:0.282001;stroke-linecap:round;stroke-linejoin:round;marker-end:url(#ConcaveTriangle);paint-order:stroke fill markers"
       d="m 114.28383,72.810476 12.64996,3.389545"
       id="path155913"
       sodipodi:nodetypes="cc" />
    <path
       style="fill:#000000;stroke:#000000;stroke-width:0.282001;stroke-linecap:round;stroke-linejoin:round;marker-end:url(#ConcaveTriangle);paint-order:stroke fill markers"
       d="m 137.63566,79.143227 12.64995,3.389545"
       id="path155917"
       sodipodi:nodetypes="cc" />
    <path
       id="path16"
       style="fill:#ff6600;fill-opacity:1;stroke:none;stroke-width:0.580005;stroke-linecap:round;stroke-linejoin:round;paint-order:stroke fill markers"
       d="m 121.92125,66.202861 c -1.46727,-6e-5 -2.65675,1.189416 -2.6567,2.656687 -4e-5,1.055994 0.61613,1.96789 1.50845,2.396235 0.12052,0.376408 0.27786,0.702803 0.71054,1.141017 0.002,-0.40135 0.0739,-0.663374 0.22739,-0.889869 0.002,9.5e-5 0.003,3.83e-4 0.005,4.45e-4 0.22586,0.370682 0.64897,1.225966 1.17615,1.534791 -0.11372,-0.432127 -0.25294,-1.203641 -0.16898,-1.60817 0.26706,0.228085 0.56283,0.407713 1.09709,0.554487 -0.24295,-0.426262 -0.29128,-0.723489 -0.22164,-1.06868 0.5978,-0.48715 0.97982,-1.22906 0.97979,-2.06034 6e-5,-1.467271 -1.18942,-2.656747 -2.65669,-2.656686 z m -0.36742,1.132749 c 0.42082,-1.47e-4 0.76209,0.340884 0.76223,0.761709 1.5e-4,0.421026 -0.34122,0.762375 -0.76223,0.762228 -0.42084,-1.39e-4 -0.76186,-0.341403 -0.76171,-0.762227 1.3e-4,-0.420623 0.34108,-0.761571 0.76171,-0.76171 z m 1.81229,0.01964 c 0.42103,-1.46e-4 0.76237,0.341203 0.76223,0.762227 -1.4e-4,0.420827 -0.34141,0.761857 -0.76223,0.761713 -0.42063,-1.4e-4 -0.76157,-0.341088 -0.76171,-0.761712 -1.5e-4,-0.420824 0.34088,-0.762088 0.76171,-0.762228 z m 0.30707,0.456672 c -0.19523,-2.2e-5 -0.35349,0.158241 -0.35347,0.353467 -7e-5,0.195239 0.15828,0.353482 0.35347,0.353468 0.19522,2.4e-5 0.35349,-0.158242 0.35346,-0.353468 7e-5,-0.195236 -0.15828,-0.353481 -0.35346,-0.353467 z m -1.81066,-0.04685 c -0.19522,-2.4e-5 -0.35298,0.158241 -0.35296,0.353467 -7e-5,0.195237 0.15777,0.353485 0.35295,0.353467 0.19524,3.2e-5 0.354,-0.158243 0.35399,-0.353469 -2e-5,-0.195212 -0.1587,-0.353504 -0.35398,-0.353465 z"
       sodipodi:nodetypes="cccccccccccccssscsssssscccccccccc" />
    <path
       id="path159753"
       style="fill:#ffe680;stroke:none;stroke-width:0.264999;stroke-linejoin:bevel;paint-order:stroke fill markers"
       d="m 123.55559,27.28426 24.96547,-1e-6 c 0.73617,0 1.3288,0.592649 1.3288,1.32881 l 1e-5,4.050382 c 1e-5,0.73616 -0.59265,1.328811 -1.32881,1.328811 l -19.74726,1e-6 -4.05373,2.650951 -0.5998,-2.650953 h -0.56469 c -0.73615,10e-7 -1.32881,-0.59265 -1.32881,-1.328811 v -4.050382 c 0,-0.736161 0.59266,-1.328808 1.32882,-1.328808 z"
       sodipodi:nodetypes="ssssscccssss" />
    <text
       xml:space="preserve"
       style="font-size:3.52777px;fill:#000000;stroke:none;stroke-width:0.28231;stroke-linecap:round;stroke-linejoin:round;paint-order:stroke fill markers"
       x="173.02672"
       y="22.36426"
       id="text161255"><tspan
         sodipodi:role="line"
         id="tspan161253"
         style="fill:#000000;stroke-width:0.28231"
         x="173.02672"
         y="22.36426" /></text>
    <path
       id="path161257"
       style="fill:#ffe680;stroke:none;stroke-width:0.264999;stroke-linejoin:bevel;paint-order:stroke fill markers"
       d="m 121.19084,56.535228 24.62611,1e-6 c 0.73617,0 1.32881,0.592649 1.32881,1.328811 l -1e-5,4.050381 c 0,0.736161 -0.59263,1.328811 -1.3288,1.328811 l -19.4079,-10e-7 -4.05372,2.650953 -0.5998,-2.650953 -0.56469,-1e-6 c -0.73616,2e-6 -1.32882,-0.592647 -1.32882,-1.328808 l 1e-5,-4.050382 c -1e-5,-0.736161 0.59265,-1.328812 1.32881,-1.328812 z"
       sodipodi:nodetypes="ssssscccssss" />
    <path
       style="fill:#000000;stroke:#000000;stroke-width:0.282001;stroke-linecap:round;stroke-linejoin:round;marker-end:url(#ConcaveTriangle);paint-order:stroke fill markers"
       d="m 49.454228,59.312377 13.096207,-10e-7"
       id="path189084"
       sodipodi:nodetypes="cc" />
    <text
       xml:space="preserve"
       style="font-size:3.52777px;fill:#000000;stroke:none;stroke-width:0.28231;stroke-linecap:round;stroke-linejoin:round;paint-order:stroke fill markers"
       x="46.805885"
       y="60.525223"
       id="text189088"><tspan
         sodipodi:role="line"
         id="tspan189086"
         style="fill:#000000;stroke-width:0.28231"
         x="46.805885"
         y="60.525223">a</tspan></text>
    <text
       xml:space="preserve"
       style="font-size:3.52777px;fill:#000000;stroke:none;stroke-width:0.28231;stroke-linecap:round;stroke-linejoin:round;paint-order:stroke fill markers"
       x="177.10541"
       y="90.781372"
       id="text189932"><tspan
         sodipodi:role="line"
         id="tspan189930"
         style="fill:#000000;stroke-width:0.28231"
         x="177.10541"
         y="90.781372">d</tspan></text>
    <text
       xml:space="preserve"
       style="font-size:3.52777px;fill:#000000;stroke:none;stroke-width:0.28231;stroke-linecap:round;stroke-linejoin:round;paint-order:stroke fill markers"
       x="85.151863"
       y="66.526848"
       id="text4804"><tspan
         sodipodi:role="line"
         id="tspan4802"
         style="fill:#000000;stroke-width:0.28231"
         x="85.151863"
         y="66.526848">bd1</tspan></text>
    <text
       xml:space="preserve"
       style="font-size:3.52777px;fill:#000000;stroke:none;stroke-width:0.28231;stroke-linecap:round;stroke-linejoin:round;paint-order:stroke fill markers"
       x="106.76974"
       y="72.790398"
       id="text5650"><tspan
         sodipodi:role="line"
         id="tspan5648"
         style="fill:#000000;stroke-width:0.28231"
         x="106.76974"
         y="72.790398">bd2</tspan></text>
    <text
       xml:space="preserve"
       style="font-size:3.52777px;fill:#000000;stroke:none;stroke-width:0.28231;stroke-linecap:round;stroke-linejoin:round;paint-order:stroke fill markers"
       x="129.63953"
       y="78.96991"
       id="text7198"><tspan
         sodipodi:role="line"
         id="tspan7196"
         style="fill:#000000;stroke-width:0.28231"
         x="129.63953"
         y="78.96991">bd3</tspan></text>
    <text
       xml:space="preserve"
       style="font-size:3.52777px;fill:#000000;stroke:none;stroke-width:0.28231;stroke-linecap:round;stroke-linejoin:round;paint-order:stroke fill markers"
       x="153.3839"
       y="84.879654"
       id="text7304"><tspan
         sodipodi:role="line"
         id="tspan7302"
         style="fill:#000000;stroke-width:0.28231"
         x="153.3839"
         y="84.879654">bd4</tspan></text>
    <path
       style="fill:#000000;stroke:#000000;stroke-width:0.282001;stroke-linecap:round;stroke-linejoin:round;marker-end:url(#ConcaveTriangle);paint-order:stroke fill markers"
       d="m 161.35232,85.233827 12.64995,3.38955"
       id="path7402"
       sodipodi:nodetypes="cc" />
    <text
       xml:space="preserve"
       style="font-size:3.52777px;line-height:1;font-family:'DejaVu Sans Mono';-inkscape-font-specification:'DejaVu Sans Mono';fill:#f2e3d8;fill-opacity:1;stroke:#b3b3b3;stroke-width:0.264999;stroke-linejoin:bevel;paint-order:stroke fill markers"
       x="180.79507"
       y="32.55785"
       id="text7408"><tspan
         sodipodi:role="line"
         id="tspan7406"
         style="stroke-width:0.265" /></text>
    <text
       xml:space="preserve"
       style="font-size:3.52777px;fill:#000000;stroke:none;stroke-width:0.28231;stroke-linecap:round;stroke-linejoin:round;paint-order:stroke fill markers"
       x="125.89996"
       y="31.774378"
       id="text7518"><tspan
         sodipodi:role="line"
         id="tspan7516"
         style="fill:#000000;stroke-width:0.28231"
         x="125.89996"
         y="31.774378">Δt=3, Δx=3</tspan></text>
    <text
       xml:space="preserve"
       style="font-size:3.52777px;fill:#000000;stroke:none;stroke-width:0.28231;stroke-linecap:round;stroke-linejoin:round;paint-order:stroke fill markers"
       x="123.4118"
       y="61.043304"
       id="text7522"><tspan
         sodipodi:role="line"
         id="tspan7520"
         style="fill:#000000;stroke-width:0.28231"
         x="123.4118"
         y="61.043304">Δt=3, Δx=0</tspan></text>
    <text
       xml:space="preserve"
       style="font-size:3.52777px;fill:#000000;stroke:none;stroke-width:0.28231;stroke-linecap:round;stroke-linejoin:round;paint-order:stroke fill markers"
       x="118.21214"
       y="42.194725"
       id="text7526"><tspan
         sodipodi:role="line"
         id="tspan7524"
         style="fill:#000000;stroke-width:0.28231"
         x="118.21214"
         y="42.194725">A</tspan></text>
    <text
       xml:space="preserve"
       style="font-size:3.52777px;fill:#000000;stroke:none;stroke-width:0.28231;stroke-linecap:round;stroke-linejoin:round;paint-order:stroke fill markers"
       x="115.47005"
       y="70.208382"
       id="text7530"><tspan
         sodipodi:role="line"
         id="tspan7528"
         style="fill:#000000;stroke-width:0.28231"
         x="115.47005"
         y="70.208382">B</tspan></text>
    <path
       id="path7532"
       style="fill:#ffe680;stroke:none;stroke-width:0.264999;stroke-linejoin:bevel;paint-order:stroke fill markers"
       d="m 7.7869038,6.1834372 29.8710692,0.072834 c 0.736168,0.0018 1.3288,0.592649 1.3288,1.32881 l 1e-5,32.0762198 c 10e-7,0.73616 -0.592653,1.330986 -1.32881,1.328811 l -24.652859,-0.07284 -4.0537302,2.650951 -0.5998,-2.650953 h -0.56469 c -0.73615,0 -1.328811,-0.59265 -1.328811,-1.32881 V 7.5122397 c 0,-0.736161 0.592665,-1.3312649 1.328821,-1.328808 z"
       sodipodi:nodetypes="ssssscccsssss" />
    <text
       xml:space="preserve"
       style="font-size:3.52777px;fill:#000000;stroke:none;stroke-width:0.28231;stroke-linecap:round;stroke-linejoin:round;paint-order:stroke fill markers"
       x="9.3458662"
       y="11.112167"
       id="text7536"><tspan
         sodipodi:role="line"
         id="tspan7534"
         style="fill:#000000;stroke-width:0.28231"
         x="9.3458662"
         y="11.112167">{</tspan><tspan
         sodipodi:role="line"
         style="fill:#000000;stroke-width:0.28231"
         x="9.3458662"
         y="15.52188"
         id="tspan7538"> a&gt;b, </tspan><tspan
         sodipodi:role="line"
         style="fill:#000000;stroke-width:0.28231"
         x="9.3458662"
         y="19.931591"
         id="tspan7540"> b|5&gt;d,</tspan><tspan
         sodipodi:role="line"
         style="fill:#000000;stroke-width:0.28231"
         x="9.3458662"
         y="24.341305"
         id="tspan7542"> b|5&gt;c,</tspan><tspan
         sodipodi:role="line"
         style="fill:#000000;stroke-width:0.28231"
         x="9.3458662"
         y="28.751017"
         id="tspan7544"> bc1|1&gt;bc4,</tspan><tspan
         sodipodi:role="line"
         style="fill:#000000;stroke-width:0.28231"
         x="9.3458662"
         y="33.160728"
         id="tspan7546"> bc1|2&gt;bc4</tspan><tspan
         sodipodi:role="line"
         style="fill:#000000;stroke-width:0.28231"
         x="9.3458662"
         y="37.570442"
         id="tspan7548">}</tspan></text>
    <path
       style="fill:none;stroke:#b3b3b3;stroke-width:0.282001;stroke-linecap:round;stroke-linejoin:round;marker-end:url(#ConcaveTriangle);paint-order:stroke fill markers"
       d="M 84.635306,52.289846 C 74.209145,49.5634 70.328646,35.996909 75.401513,29.280669"
       id="path7649"
       sodipodi:nodetypes="cc" />
    <path
       style="fill:none;stroke:#b3b3b3;stroke-width:0.282001;stroke-linecap:round;stroke-linejoin:round;marker-end:url(#ConcaveTriangle);paint-order:stroke fill markers"
       d="m 109.75422,24.300106 c 5.3778,2.46745 8.53111,12.434897 3.78405,19.902587"
       id="path7651"
       sodipodi:nodetypes="cc" />
    <path
       style="fill:none;stroke:#b3b3b3;stroke-width:0.282001;stroke-linecap:round;stroke-linejoin:round;marker-end:url(#ConcaveTriangle);paint-order:stroke fill markers"
       d="m 80.894918,22.918206 c 4.339312,-4.194147 14.13121,-6.350504 20.823832,-3.352604"
       id="path7653"
       sodipodi:nodetypes="cc" />
  </g>
</svg>
