<?xml version="1.0" encoding="UTF-8" standalone="no"?>
<!-- Created with Inkscape (http://www.inkscape.org/) -->

<svg
   width="500"
   height="150"
   viewBox="0 0 132.29166 39.6875"
   version="1.1"
   id="svg1"
   inkscape:version="1.3.1 (9b9bdc1480, 2023-11-25, custom)"
   sodipodi:docname="2d-f1f2f3-loop.svg"
   xmlns:inkscape="http://www.inkscape.org/namespaces/inkscape"
   xmlns:sodipodi="http://sodipodi.sourceforge.net/DTD/sodipodi-0.dtd"
   xmlns="http://www.w3.org/2000/svg"
   xmlns:svg="http://www.w3.org/2000/svg">
  <sodipodi:namedview
     id="namedview1"
     pagecolor="#ffffff"
     bordercolor="#eeeeee"
     borderopacity="1"
     inkscape:showpageshadow="0"
     inkscape:pageopacity="0"
     inkscape:pagecheckerboard="0"
     inkscape:deskcolor="#505050"
     inkscape:document-units="mm"
     inkscape:zoom="2.0000001"
     inkscape:cx="280.49999"
     inkscape:cy="159.24999"
     inkscape:window-width="1920"
     inkscape:window-height="1080"
     inkscape:window-x="1920"
     inkscape:window-y="0"
     inkscape:window-maximized="1"
     inkscape:current-layer="layer1"
     showgrid="false"
     showguides="false" />
  <defs
     id="defs1">
    <marker
       style="overflow:visible"
       id="ConcaveTriangle"
       refX="0"
       refY="0"
       orient="auto-start-reverse"
       inkscape:stockid="Concave triangle arrow"
       markerWidth="1"
       markerHeight="1"
       viewBox="0 0 1 1"
       inkscape:isstock="true"
       inkscape:collect="always"
       preserveAspectRatio="xMidYMid">
      <path
         transform="scale(0.7)"
         d="M -2,-4 9,0 -2,4 c 2,-2.33 2,-5.66 0,-8 z"
         style="fill:context-stroke;fill-rule:evenodd;stroke:none"
         id="path7" />
    </marker>
  </defs>
  <g
     inkscape:label="Слой 1"
     inkscape:groupmode="layer"
     id="layer1">
    <path
       style="fill:#000000;stroke:#000000;stroke-width:0.282001;stroke-linecap:round;stroke-linejoin:round;marker-end:url(#ConcaveTriangle);paint-order:stroke fill markers"
       d="M 79.82963,33.986252 53.100168,33.641238"
       id="path1"
       sodipodi:nodetypes="cc" />
    <text
       xml:space="preserve"
       style="font-size:3.52777px;fill:#00ff00;stroke:#ffffff;stroke-width:0.282001;stroke-linecap:round;stroke-linejoin:round;paint-order:stroke fill markers"
       x="65.32296"
       y="62.654007"
       id="text2"><tspan
         sodipodi:role="line"
         id="tspan2"
         style="stroke-width:0.282"
         x="65.32296"
         y="62.654007" /></text>
    <path
       style="fill:#000000;stroke:#000000;stroke-width:0.282001;stroke-linecap:round;stroke-linejoin:round;marker-end:url(#ConcaveTriangle);paint-order:stroke fill markers"
       d="M 50.649039,30.458676 63.648965,10.201202"
       id="path4"
       sodipodi:nodetypes="cc" />
    <path
       style="fill:#000000;stroke:#000000;stroke-width:0.282001;stroke-linecap:round;stroke-linejoin:round;marker-end:url(#ConcaveTriangle);paint-order:stroke fill markers"
       d="M 67.559883,9.3216682 80.12399,29.553277"
       id="path5"
       sodipodi:nodetypes="cc" />
    <text
       xml:space="preserve"
       style="font-size:3.52777px;fill:#000000;stroke:none;stroke-width:0.28231;stroke-linecap:round;stroke-linejoin:round;paint-order:stroke fill markers"
       x="48.342453"
       y="33.911209"
       id="text6"><tspan
         sodipodi:role="line"
         id="tspan6"
         style="fill:#000000;stroke-width:0.28231"
         x="48.342453"
         y="33.911209">a</tspan></text>
    <text
       xml:space="preserve"
       style="font-size:3.52777px;fill:#00ff00;stroke:#ffffff;stroke-width:0.282001;stroke-linecap:round;stroke-linejoin:round;paint-order:stroke fill markers"
       x="47.990417"
       y="43.410603"
       id="text7"><tspan
         sodipodi:role="line"
         id="tspan7"
         style="stroke-width:0.282"
         x="47.990417"
         y="43.410603" /></text>
    <text
       xml:space="preserve"
       style="font-size:3.52777px;fill:#000000;stroke:none;stroke-width:0.28231;stroke-linecap:round;stroke-linejoin:round;paint-order:stroke fill markers"
       x="65.038689"
       y="8.2801743"
       id="text8"><tspan
         sodipodi:role="line"
         id="tspan8"
         style="fill:#000000;stroke-width:0.28231"
         x="65.038689"
         y="8.2801743">b</tspan></text>
    <text
       xml:space="preserve"
       style="font-size:3.52777px;fill:#000000;stroke:none;stroke-width:0.28231;stroke-linecap:round;stroke-linejoin:round;paint-order:stroke fill markers"
       x="80.919769"
       y="34.531464"
       id="text10"><tspan
         sodipodi:role="line"
         id="tspan10"
         style="fill:#000000;stroke-width:0.28231"
         x="80.919769"
         y="34.531464">c</tspan></text>
    <text
       xml:space="preserve"
       style="font-size:3.52777px;fill:#00ff00;stroke:#ffffff;stroke-width:0.282001;stroke-linecap:round;stroke-linejoin:round;paint-order:stroke fill markers"
       x="109.35318"
       y="56.21957"
       id="text11"><tspan
         sodipodi:role="line"
         id="tspan11"
         style="stroke-width:0.282"
         x="109.35318"
         y="56.21957" /></text>
    <path
       id="path2-6"
       style="fill:#00ccff;stroke:none;stroke-width:0.580005;stroke-linecap:round;stroke-linejoin:round;paint-order:stroke fill markers"
       d="m 99.211664,9.9467291 c -1.46727,-6.1e-5 -2.65674,1.1894139 -2.65668,2.6566859 -6e-5,1.467272 1.18941,2.656747 2.65668,2.656685 1.467276,6.2e-5 2.656746,-1.189413 2.656686,-2.656685 6e-5,-1.467272 -1.18941,-2.6567469 -2.656686,-2.6566859 z m 1.136886,0.8387089 c 0.42062,1.4e-4 0.76157,0.341087 0.76171,0.761711 1.4e-4,0.420825 -0.34089,0.762087 -0.76171,0.762227 -0.421026,1.46e-4 -0.762376,-0.3412 -0.762226,-0.762227 1.4e-4,-0.420826 0.3414,-0.761857 0.762226,-0.761711 z m -1.812296,0.01964 c 0.42083,1.39e-4 0.76186,0.341402 0.76171,0.762227 -1.4e-4,0.420624 -0.34108,0.761572 -0.76171,0.761711 -0.42082,1.46e-4 -0.76209,-0.340885 -0.76222,-0.761711 -1.5e-4,-0.421026 0.3412,-0.762373 0.76222,-0.762227 z m -0.204385,0.593613 c -0.19522,-2.6e-5 -0.35349,0.158242 -0.35346,0.353467 -3e-5,0.195226 0.15824,0.353493 0.35346,0.353467 0.19523,2.6e-5 0.35349,-0.158242 0.35347,-0.353467 2e-5,-0.195225 -0.15824,-0.353493 -0.35347,-0.353467 z m 1.741501,0 c -0.195231,-2.6e-5 -0.353491,0.158242 -0.353471,0.353467 -2e-5,0.195225 0.15824,0.353493 0.353471,0.353467 0.19522,2.6e-5 0.35349,-0.158241 0.35346,-0.353467 3e-5,-0.195225 -0.15824,-0.353493 -0.35346,-0.353467 z"
       sodipodi:nodetypes="cccccsssssssssscccccccccc" />
    <path
       id="path12"
       style="fill:#ff6600;stroke:none;stroke-width:0.580005;stroke-linecap:round;stroke-linejoin:round;paint-order:stroke fill markers"
       d="m 53.079539,16.697005 c -1.46727,-6.1e-5 -2.65674,1.189414 -2.65668,2.656686 -6e-5,1.467272 1.18941,2.656747 2.65668,2.656685 1.46727,6.2e-5 2.65675,-1.189413 2.65669,-2.656685 6e-5,-1.467272 -1.18942,-2.656747 -2.65669,-2.656686 z m 1.13688,0.838709 c 0.42063,1.4e-4 0.76158,0.341087 0.76171,0.761711 1.5e-4,0.420825 -0.34088,0.762087 -0.76171,0.762227 -0.42102,1.46e-4 -0.76237,-0.3412 -0.76222,-0.762227 1.4e-4,-0.420826 0.3414,-0.761857 0.76222,-0.761711 z m -1.81229,0.01964 c 0.42083,1.39e-4 0.76186,0.341402 0.76171,0.762227 -1.4e-4,0.420624 -0.34108,0.761572 -0.76171,0.761711 -0.42082,1.46e-4 -0.76209,-0.340885 -0.76223,-0.761711 -1.4e-4,-0.421026 0.3412,-0.762373 0.76223,-0.762227 z m 0.133093,0.677141 c -0.19522,-2.6e-5 -0.35349,0.158242 -0.35346,0.353467 -3e-5,0.195226 0.15824,0.353493 0.35346,0.353467 0.19523,2.6e-5 0.35349,-0.158242 0.35347,-0.353467 2e-5,-0.195225 -0.15824,-0.353493 -0.35347,-0.353467 z m 1.818179,-0.0039 c -0.19523,-2.6e-5 -0.35349,0.158242 -0.35347,0.353467 -2e-5,0.195225 0.15824,0.353493 0.35347,0.353467 0.19522,2.6e-5 0.35349,-0.158241 0.35346,-0.353467 3e-5,-0.195225 -0.15824,-0.353493 -0.35346,-0.353467 z"
       sodipodi:nodetypes="cccccsssssssssscccccccccc" />
    <path
       id="rect15"
       style="fill:#ff6600;stroke-width:0.204248;stroke-linecap:round;stroke-linejoin:round;stroke-dasharray:0.612743, 0.612743;paint-order:stroke fill markers"
       d="M 46.390967 7.8801392 C 45.268849 7.8801392 44.365251 8.7837429 44.365251 9.9058553 L 44.365251 12.088151 C 44.365251 13.210266 45.268849 14.11335 46.390967 14.11335 L 50.982418 14.094747 L 52.16064 16.500802 L 53.312508 14.11335 C 54.434616 14.11335 55.338224 13.210266 55.338224 12.088151 L 55.338224 9.9058553 C 55.338224 8.7837429 54.434616 7.8801392 53.312508 7.8801392 L 46.390967 7.8801392 z M 47.965548 9.3033081 L 48.397046 9.3033081 L 48.397046 12.127425 L 49.101396 12.127425 L 49.101396 12.490194 L 47.265849 12.490194 L 47.265849 12.127425 L 47.970199 12.127425 L 47.970199 9.696049 L 47.203837 9.849528 L 47.203837 9.4567871 L 47.965548 9.3033081 z M 49.933903 9.3033081 L 50.819637 9.3033081 C 51.437203 9.3033081 51.890382 9.4322913 52.179244 9.6898478 C 52.468106 9.9459813 52.612292 10.346974 52.612292 10.893392 C 52.612292 11.442656 52.467462 11.846097 52.177177 12.103654 C 51.886892 12.36121 51.434357 12.490194 50.819637 12.490194 L 49.933903 12.490194 L 49.933903 9.3033081 z M 50.364884 9.6578084 L 50.364884 12.135693 L 50.885783 12.135693 C 51.325479 12.135693 51.647098 12.036219 51.850582 11.837004 C 52.055489 11.637789 52.158057 11.323127 52.158057 10.893392 C 52.158057 10.466503 52.055489 10.15429 51.850582 9.9564982 C 51.647098 9.7572832 51.325479 9.6578084 50.885783 9.6578084 L 50.364884 9.6578084 z " />
    <path
       id="path2"
       style="fill:#00ccff;fill-opacity:1;stroke-width:0.204248;stroke-linecap:round;stroke-linejoin:round;stroke-dasharray:0.612743, 0.612743;paint-order:stroke fill markers"
       d="m 101.50459,0.54806578 c -1.12212,0 -2.025713,0.90360402 -2.025713,2.02571602 v 2.182296 c 0,1.122115 0.903593,2.025199 2.025713,2.025199 l -0.60381,3.1757579 2.87819,-3.1912215 4.64716,0.015464 c 1.1221,0 2.02571,-0.903084 2.02571,-2.025199 v -2.182296 c 0,-1.122112 -0.90361,-2.02571602 -2.02571,-2.02571602 z m 1.76475,1.41903502 c 0.33013,0 0.59325,0.082466 0.78962,0.24753 0.19637,0.165064 0.29455,0.38592 0.29455,0.661975 0,0.130912 -0.0246,0.255514 -0.0744,0.37362 -0.0484,0.116683 -0.13716,0.254557 -0.26665,0.413929 -0.0356,0.041266 -0.14884,0.160842 -0.33952,0.358634 -0.19067,0.196369 -0.45998,0.471471 -0.80718,0.825789 h 1.50482 v 0.362769 h -2.02314 v -0.362769 c 0.16364,-0.169332 0.38643,-0.395985 0.66818,-0.680578 0.28317,-0.286016 0.46073,-0.470406 0.5333,-0.552938 0.13803,-0.155103 0.23428,-0.286019 0.28836,-0.392741 0.0555,-0.108145 0.0832,-0.21445 0.0832,-0.318327 0,-0.169332 -0.0598,-0.307206 -0.17931,-0.413928 -0.11811,-0.106722 -0.27235,-0.160197 -0.46302,-0.160197 -0.13519,0 -0.2786,0.023839 -0.42943,0.070797 -0.14942,0.046958 -0.30932,0.118085 -0.48008,0.213424 v -0.435633 c 0.1736,-0.069725 0.33596,-0.122556 0.48679,-0.15813 0.15084,-0.035574 0.28871,-0.053226 0.41393,-0.053226 z m 1.96784,0.057877 h 0.88625 c 0.61757,0 1.07075,0.128467 1.35961,0.386023 0.28886,0.256134 0.43305,0.657643 0.43305,1.204061 0,0.549264 -0.14535,0.952706 -0.43564,1.210262 -0.29028,0.257557 -0.7423,0.386023 -1.35702,0.386023 h -0.88625 z m 0.4315,0.353984 v 2.478401 h 0.5209 c 0.43969,0 0.7608,-0.099991 0.96428,-0.299206 0.20491,-0.199215 0.30747,-0.51336 0.30747,-0.943095 0,-0.426889 -0.10256,-0.739102 -0.30747,-0.936894 -0.20348,-0.199215 -0.52459,-0.299206 -0.96428,-0.299206 z"
       sodipodi:nodetypes="sssccccsssssssccccccccsccscscccsscscsssccccscscsc" />
  </g>
</svg>
