<?xml version="1.0" encoding="UTF-8" standalone="no"?>
<!-- Created with Inkscape (http://www.inkscape.org/) -->

<svg
   width="500"
   height="150"
   viewBox="0 0 132.29166 39.6875"
   version="1.1"
   id="svg1"
   inkscape:version="1.3.1 (9b9bdc1480, 2023-11-25, custom)"
   sodipodi:docname="2d-f1f2f3f4f5.svg"
   xmlns:inkscape="http://www.inkscape.org/namespaces/inkscape"
   xmlns:sodipodi="http://sodipodi.sourceforge.net/DTD/sodipodi-0.dtd"
   xmlns="http://www.w3.org/2000/svg"
   xmlns:svg="http://www.w3.org/2000/svg">
  <sodipodi:namedview
     id="namedview1"
     pagecolor="#ffffff"
     bordercolor="#eeeeee"
     borderopacity="1"
     inkscape:showpageshadow="0"
     inkscape:pageopacity="0"
     inkscape:pagecheckerboard="0"
     inkscape:deskcolor="#505050"
     inkscape:document-units="mm"
     inkscape:zoom="2.8284273"
     inkscape:cx="283.19625"
     inkscape:cy="103.23758"
     inkscape:window-width="1914"
     inkscape:window-height="1033"
     inkscape:window-x="1920"
     inkscape:window-y="44"
     inkscape:window-maximized="1"
     inkscape:current-layer="layer1"
     showgrid="false" />
  <defs
     id="defs1">
    <marker
       style="overflow:visible"
       id="ConcaveTriangle"
       refX="0"
       refY="0"
       orient="auto-start-reverse"
       inkscape:stockid="Concave triangle arrow"
       markerWidth="1"
       markerHeight="1"
       viewBox="0 0 1 1"
       inkscape:isstock="true"
       inkscape:collect="always"
       preserveAspectRatio="xMidYMid">
      <path
         transform="scale(0.7)"
         d="M -2,-4 9,0 -2,4 c 2,-2.33 2,-5.66 0,-8 z"
         style="fill:context-stroke;fill-rule:evenodd;stroke:none"
         id="path7" />
    </marker>
  </defs>
  <g
     inkscape:label="Слой 1"
     inkscape:groupmode="layer"
     id="layer1">
    <path
       id="path16"
       style="fill:#ff6600;stroke-width:0.204248;stroke-linecap:round;stroke-linejoin:round;stroke-dasharray:0.612743, 0.612743;paint-order:stroke fill markers"
       d="m 94.470906,20.309851 c -1.12212,0 -2.02572,0.9036 -2.02572,2.025716 v 2.182296 c 0,1.122117 0.9036,2.025199 2.02572,2.025199 l 0.41754,2.046904 2.12029,-2.046904 h 4.383704 c 1.12212,0 2.02571,-0.903082 2.02571,-2.025199 v -2.182296 c 0,-1.122116 -0.90359,-2.025716 -2.02571,-2.025716 z m 1.89704,1.585433 h 0.41238 v 2.700094 h 0.67386 v 0.347265 h -1.75545 v -0.347265 h 0.67334 v -2.324406 l -0.73277,0.146761 v -0.375688 z m 1.882047,0 h 0.84698 c 0.59053,0 1.023967,0.123208 1.300177,0.369487 0.27621,0.244918 0.41444,0.628342 0.41444,1.150834 0,0.525213 -0.13893,0.911273 -0.41651,1.157552 -0.27757,0.246279 -0.710307,0.369486 -1.298107,0.369486 h -0.84698 z m 0.41238,0.338998 v 2.369364 h 0.49765 c 0.42044,0 0.72836,-0.09528 0.922937,-0.285771 0.19593,-0.190492 0.29352,-0.491352 0.29352,-0.90227 0,-0.408197 -0.0976,-0.706422 -0.29352,-0.895553 -0.194577,-0.190492 -0.502497,-0.28577 -0.922937,-0.28577 z" />
    <path
       style="fill:#000000;stroke:#000000;stroke-width:0.282001;stroke-linecap:round;stroke-linejoin:round;marker-end:url(#ConcaveTriangle);paint-order:stroke fill markers"
       d="M 41.603188,35.613339 70.614107,35.328384"
       id="path1"
       sodipodi:nodetypes="cc" />
    <text
       xml:space="preserve"
       style="font-size:3.52777px;fill:#00ff00;stroke:#ffffff;stroke-width:0.282001;stroke-linecap:round;stroke-linejoin:round;paint-order:stroke fill markers"
       x="65.32296"
       y="62.654007"
       id="text2"><tspan
         sodipodi:role="line"
         id="tspan2"
         style="stroke-width:0.282"
         x="65.32296"
         y="62.654007" /></text>
    <path
       style="fill:#000000;stroke:#000000;stroke-width:0.282001;stroke-linecap:round;stroke-linejoin:round;marker-end:url(#ConcaveTriangle);paint-order:stroke fill markers"
       d="M 40.875711,32.981668 56.633558,11.101116"
       id="path4"
       sodipodi:nodetypes="cc" />
    <path
       style="fill:#000000;stroke:#000000;stroke-width:0.282001;stroke-linecap:round;stroke-linejoin:round;marker-end:url(#ConcaveTriangle);paint-order:stroke fill markers"
       d="M 59.724516,10.220403 72.462127,31.090921"
       id="path5"
       sodipodi:nodetypes="cc" />
    <text
       xml:space="preserve"
       style="font-size:3.52777px;fill:#000000;stroke:none;stroke-width:0.28231;stroke-linecap:round;stroke-linejoin:round;paint-order:stroke fill markers"
       x="38.480778"
       y="36.587463"
       id="text6"><tspan
         sodipodi:role="line"
         id="tspan6"
         style="fill:#000000;stroke-width:0.28231"
         x="38.480778"
         y="36.587463">b</tspan></text>
    <text
       xml:space="preserve"
       style="font-size:3.52777px;fill:#00ff00;stroke:#ffffff;stroke-width:0.282001;stroke-linecap:round;stroke-linejoin:round;paint-order:stroke fill markers"
       x="47.990417"
       y="43.410603"
       id="text7"><tspan
         sodipodi:role="line"
         id="tspan7"
         style="stroke-width:0.282"
         x="47.990417"
         y="43.410603" /></text>
    <text
       xml:space="preserve"
       style="font-size:3.52777px;fill:#000000;stroke:none;stroke-width:0.28231;stroke-linecap:round;stroke-linejoin:round;paint-order:stroke fill markers"
       x="57.582436"
       y="8.4128847"
       id="text8"><tspan
         sodipodi:role="line"
         id="tspan8"
         style="fill:#000000;stroke-width:0.28231"
         x="57.582436"
         y="8.4128847">c</tspan></text>
    <text
       xml:space="preserve"
       style="font-size:3.52777px;fill:#000000;stroke:none;stroke-width:0.28231;stroke-linecap:round;stroke-linejoin:round;paint-order:stroke fill markers"
       x="73.67836"
       y="36.35144"
       id="text10"><tspan
         sodipodi:role="line"
         id="tspan10"
         style="fill:#000000;stroke-width:0.28231"
         x="73.67836"
         y="36.35144">d</tspan></text>
    <text
       xml:space="preserve"
       style="font-size:3.52777px;fill:#00ff00;stroke:#ffffff;stroke-width:0.282001;stroke-linecap:round;stroke-linejoin:round;paint-order:stroke fill markers"
       x="109.35318"
       y="56.21957"
       id="text11"><tspan
         sodipodi:role="line"
         id="tspan11"
         style="stroke-width:0.282"
         x="109.35318"
         y="56.21957" /></text>
    <path
       id="path2"
       style="fill:#ff6600;stroke:none;stroke-width:0.580005;stroke-linecap:round;stroke-linejoin:round;paint-order:stroke fill markers"
       d="m 56.081594,29.887675 c -1.467272,-6.1e-5 -2.656747,1.189414 -2.656685,2.656686 -6.2e-5,1.467272 1.189413,2.656747 2.656685,2.656685 1.467272,6.2e-5 2.656747,-1.189413 2.656685,-2.656685 6.2e-5,-1.467272 -1.189413,-2.656747 -2.656685,-2.656686 z m 1.136882,0.838709 c 0.420623,1.4e-4 0.761571,0.341087 0.76171,0.761711 1.46e-4,0.420825 -0.340885,0.762087 -0.76171,0.762227 -0.421027,1.46e-4 -0.762374,-0.3412 -0.762228,-0.762227 1.39e-4,-0.420826 0.341403,-0.761857 0.762228,-0.761711 z m -1.812293,0.01964 c 0.420825,1.39e-4 0.761857,0.341402 0.761711,0.762227 -1.39e-4,0.420624 -0.341087,0.761572 -0.761711,0.761711 -0.420825,1.46e-4 -0.762088,-0.340885 -0.762227,-0.761711 -1.46e-4,-0.421026 0.3412,-0.762373 0.762227,-0.762227 z m 0.1921,0.10734 c -0.195225,-2.6e-5 -0.353493,0.158242 -0.353467,0.353467 -2.6e-5,0.195226 0.158242,0.353493 0.353467,0.353467 0.195225,2.6e-5 0.353492,-0.158242 0.353466,-0.353467 2.6e-5,-0.195225 -0.158241,-0.353493 -0.353466,-0.353467 z m 1.741495,0 c -0.195225,-2.6e-5 -0.353492,0.158242 -0.353466,0.353467 -2.6e-5,0.195225 0.158241,0.353493 0.353466,0.353467 0.195225,2.6e-5 0.353493,-0.158241 0.353467,-0.353467 2.6e-5,-0.195225 -0.158242,-0.353493 -0.353467,-0.353467 z"
       sodipodi:nodetypes="cccccsssssssssscccccccccc" />
    <path
       style="fill:#000000;stroke:#000000;stroke-width:0.282001;stroke-linecap:round;stroke-linejoin:round;marker-end:url(#ConcaveTriangle);paint-order:stroke fill markers"
       d="M 5.494241,36.128937 34.505159,35.843982"
       id="path3"
       sodipodi:nodetypes="cc" />
    <text
       xml:space="preserve"
       style="font-size:3.52777px;fill:#000000;stroke:none;stroke-width:0.28231;stroke-linecap:round;stroke-linejoin:round;paint-order:stroke fill markers"
       x="2.0040681"
       y="37.07412"
       id="text3"><tspan
         sodipodi:role="line"
         id="tspan3"
         style="fill:#000000;stroke-width:0.28231"
         x="2.0040681"
         y="37.07412">a</tspan></text>
    <path
       style="fill:#000000;stroke:#000000;stroke-width:0.282001;stroke-linecap:round;stroke-linejoin:round;marker-end:url(#ConcaveTriangle);paint-order:stroke fill markers"
       d="M 78.153673,34.978817 107.16459,34.693862"
       id="path6"
       sodipodi:nodetypes="cc" />
    <text
       xml:space="preserve"
       style="font-size:3.52777px;fill:#000000;stroke:none;stroke-width:0.28231;stroke-linecap:round;stroke-linejoin:round;paint-order:stroke fill markers"
       x="109.73307"
       y="35.509533"
       id="text9"><tspan
         sodipodi:role="line"
         id="tspan9"
         style="fill:#000000;stroke-width:0.28231"
         x="109.73307"
         y="35.509533">e</tspan></text>
    <path
       style="fill:#000000;stroke:#000000;stroke-width:0.282001;stroke-linecap:round;stroke-linejoin:round;marker-end:url(#ConcaveTriangle);paint-order:stroke fill markers"
       d="M 112.27186,32.65335 126.53054,7.3866807"
       id="path13"
       sodipodi:nodetypes="cc" />
    <text
       xml:space="preserve"
       style="font-size:3.52777px;fill:#000000;stroke:none;stroke-width:0.28231;stroke-linecap:round;stroke-linejoin:round;paint-order:stroke fill markers"
       x="127.6461"
       y="4.8289089"
       id="text13"><tspan
         sodipodi:role="line"
         id="tspan13"
         style="fill:#000000;stroke-width:0.28231"
         x="127.6461"
         y="4.8289089">f</tspan></text>
    <path
       id="rect15"
       style="fill:#ff6600;stroke-width:0.204248;stroke-linecap:round;stroke-linejoin:round;stroke-dasharray:0.612743, 0.612743;paint-order:stroke fill markers"
       d="m 56.657757,21.22771 c -1.122118,0 -2.025717,0.903598 -2.025717,2.025716 v 2.182296 c 0,1.122119 0.903599,2.025199 2.025717,2.025199 l 0.417545,2.046904 2.120284,-2.046904 h 4.383712 c 1.122117,0 2.025716,-0.90308 2.025716,-2.025199 v -2.182296 c 0,-1.122118 -0.903599,-2.025716 -2.025716,-2.025716 z m 1.745113,1.175639 c 0.374102,0 0.671992,0.09355 0.894519,0.280603 0.222526,0.187051 0.333829,0.436997 0.333829,0.749825 0,0.148351 -0.02831,0.289391 -0.08475,0.42323 -0.05483,0.132226 -0.155568,0.28862 -0.302307,0.469222 -0.04031,0.04676 -0.168396,0.182554 -0.384473,0.406693 -0.216076,0.222527 -0.520703,0.534345 -0.914156,0.93586 h 1.705322 v 0.411345 h -2.292883 v -0.411345 c 0.185439,-0.191888 0.437783,-0.449026 0.75706,-0.771529 0.32089,-0.324115 0.522376,-0.532792 0.604614,-0.626318 0.156414,-0.175764 0.26532,-0.323996 0.326595,-0.444934 0.06289,-0.122551 0.09405,-0.242988 0.09405,-0.360702 0,-0.191889 -0.06764,-0.348283 -0.203088,-0.469222 -0.133838,-0.120938 -0.308956,-0.181384 -0.525033,-0.181384 -0.153188,0 -0.315349,0.02637 -0.486275,0.07958 -0.169314,0.05321 -0.350651,0.134324 -0.544153,0.242362 v -0.49351 c 0.196727,-0.07901 0.380978,-0.139004 0.551905,-0.179317 0.170926,-0.04031 0.327321,-0.06046 0.469222,-0.06046 z m 2.229838,0.06563 h 1.004073 c 0.69983,0 1.213134,0.145835 1.540474,0.437699 0.32734,0.290252 0.490926,0.745054 0.490926,1.364258 0,0.622429 -0.164557,1.079628 -0.49351,1.371492 -0.328952,0.291865 -0.841285,0.4377 -1.53789,0.4377 h -1.004073 z m 0.488859,0.401526 v 2.808097 h 0.590145 c 0.498266,0 0.862367,-0.112729 1.092956,-0.338481 0.232202,-0.225751 0.348299,-0.582207 0.348299,-1.069185 0,-0.483754 -0.116097,-0.837812 -0.348299,-1.061951 -0.230589,-0.225751 -0.59469,-0.33848 -1.092956,-0.33848 z" />
    <path
       id="path15"
       style="fill:#ff6600;stroke:none;stroke-width:0.580005;stroke-linecap:round;stroke-linejoin:round;paint-order:stroke fill markers"
       d="m 93.742178,28.961049 c -1.46727,-6.1e-5 -2.65675,1.189414 -2.65669,2.656686 -6e-5,1.467272 1.18942,2.656747 2.65669,2.656685 1.46727,6.2e-5 2.65675,-1.189413 2.65668,-2.656685 7e-5,-1.467272 -1.18941,-2.656747 -2.65668,-2.656686 z m 0.629162,0.787972 c 0.42062,1.4e-4 0.76157,0.341087 0.76171,0.761711 1.5e-4,0.420825 -0.34088,0.762087 -0.76171,0.762227 -0.42103,1.46e-4 -0.76237,-0.3412 -0.76223,-0.762227 1.4e-4,-0.420826 0.34141,-0.761857 0.76223,-0.761711 z m -1.81229,0.01964 c 0.42082,1.39e-4 0.76186,0.341402 0.76171,0.762227 -1.4e-4,0.420624 -0.34109,0.761572 -0.76171,0.761711 -0.42083,1.46e-4 -0.76209,-0.340885 -0.76223,-0.761711 -1.4e-4,-0.421026 0.3412,-0.762373 0.76223,-0.762227 z m -0.267073,0.420414 c -0.19523,-2.6e-5 -0.35349,0.158242 -0.35347,0.353467 -2e-5,0.195226 0.15824,0.353493 0.35347,0.353467 0.19522,2.6e-5 0.35349,-0.158242 0.35346,-0.353467 3e-5,-0.195225 -0.15824,-0.353493 -0.35346,-0.353467 z m 1.774813,-0.01503 c -0.19522,-2.6e-5 -0.35349,0.158242 -0.35346,0.353467 -3e-5,0.195225 0.15824,0.353493 0.35346,0.353467 0.19523,2.6e-5 0.3535,-0.158241 0.35347,-0.353467 3e-5,-0.195225 -0.15824,-0.353493 -0.35347,-0.353467 z"
       sodipodi:nodetypes="cccccsssssssssscccccccccc" />
  </g>
</svg>
