<?xml version="1.0" encoding="UTF-8" standalone="no"?>
<!-- Created with Inkscape (http://www.inkscape.org/) -->

<svg
   width="500"
   height="150"
   viewBox="0 0 132.29166 39.6875"
   version="1.1"
   id="svg1"
   inkscape:version="1.3.1 (9b9bdc1480, 2023-11-25, custom)"
   sodipodi:docname="3d-f1f2f3f4f5.svg"
   xmlns:inkscape="http://www.inkscape.org/namespaces/inkscape"
   xmlns:sodipodi="http://sodipodi.sourceforge.net/DTD/sodipodi-0.dtd"
   xmlns="http://www.w3.org/2000/svg"
   xmlns:svg="http://www.w3.org/2000/svg">
  <sodipodi:namedview
     id="namedview1"
     pagecolor="#ffffff"
     bordercolor="#eeeeee"
     borderopacity="1"
     inkscape:showpageshadow="0"
     inkscape:pageopacity="0"
     inkscape:pagecheckerboard="0"
     inkscape:deskcolor="#505050"
     inkscape:document-units="mm"
     inkscape:zoom="5.6568545"
     inkscape:cx="170.05917"
     inkscape:cy="58.247918"
     inkscape:window-width="1920"
     inkscape:window-height="1080"
     inkscape:window-x="1920"
     inkscape:window-y="0"
     inkscape:window-maximized="1"
     inkscape:current-layer="layer1"
     showgrid="false" />
  <defs
     id="defs1">
    <marker
       style="overflow:visible"
       id="marker14"
       refX="0"
       refY="0"
       orient="auto-start-reverse"
       inkscape:stockid="Concave triangle arrow"
       markerWidth="1"
       markerHeight="1"
       viewBox="0 0 1 1"
       inkscape:isstock="true"
       inkscape:collect="always"
       preserveAspectRatio="xMidYMid">
      <path
         transform="scale(0.7)"
         d="M -2,-4 9,0 -2,4 c 2,-2.33 2,-5.66 0,-8 z"
         style="fill:context-stroke;fill-rule:evenodd;stroke:none"
         id="path14" />
    </marker>
    <marker
       style="overflow:visible"
       id="marker10"
       refX="0"
       refY="0"
       orient="auto-start-reverse"
       inkscape:stockid="Concave triangle arrow"
       markerWidth="1"
       markerHeight="1"
       viewBox="0 0 1 1"
       inkscape:isstock="true"
       inkscape:collect="always"
       preserveAspectRatio="xMidYMid">
      <path
         transform="scale(0.7)"
         d="M -2,-4 9,0 -2,4 c 2,-2.33 2,-5.66 0,-8 z"
         style="fill:context-stroke;fill-rule:evenodd;stroke:none"
         id="path10" />
    </marker>
    <marker
       style="overflow:visible"
       id="marker8"
       refX="0"
       refY="0"
       orient="auto-start-reverse"
       inkscape:stockid="Concave triangle arrow"
       markerWidth="1"
       markerHeight="1"
       viewBox="0 0 1 1"
       inkscape:isstock="true"
       inkscape:collect="always"
       preserveAspectRatio="xMidYMid">
      <path
         transform="scale(0.7)"
         d="M -2,-4 9,0 -2,4 c 2,-2.33 2,-5.66 0,-8 z"
         style="fill:context-stroke;fill-rule:evenodd;stroke:none"
         id="path8" />
    </marker>
    <marker
       style="overflow:visible"
       id="ConcaveTriangle"
       refX="0"
       refY="0"
       orient="auto-start-reverse"
       inkscape:stockid="Concave triangle arrow"
       markerWidth="1"
       markerHeight="1"
       viewBox="0 0 1 1"
       inkscape:isstock="true"
       inkscape:collect="always"
       preserveAspectRatio="xMidYMid">
      <path
         transform="scale(0.7)"
         d="M -2,-4 9,0 -2,4 c 2,-2.33 2,-5.66 0,-8 z"
         style="fill:context-stroke;fill-rule:evenodd;stroke:none"
         id="path7" />
    </marker>
  </defs>
  <g
     inkscape:label="Слой 1"
     inkscape:groupmode="layer"
     id="layer1">
    <path
       style="fill:#000000;stroke:#000000;stroke-width:0.282001;stroke-linecap:round;stroke-linejoin:round;marker-start:url(#marker8);marker-end:url(#ConcaveTriangle);paint-order:stroke fill markers"
       d="m 19.877369,31.815848 25.465806,0.198671"
       id="path1"
       sodipodi:nodetypes="cc" />
    <text
       xml:space="preserve"
       style="font-size:3.52777px;fill:#00ff00;stroke:#ffffff;stroke-width:0.282001;stroke-linecap:round;stroke-linejoin:round;paint-order:stroke fill markers"
       x="65.32296"
       y="62.654007"
       id="text2"><tspan
         sodipodi:role="line"
         id="tspan2"
         style="stroke-width:0.282"
         x="65.32296"
         y="62.654007" /></text>
    <path
       style="fill:#000000;stroke:#000000;stroke-width:0.282001;stroke-linecap:round;stroke-linejoin:round;marker-start:url(#marker8);marker-end:url(#ConcaveTriangle);paint-order:stroke fill markers"
       d="M 17.888845,27.8393 30.755221,8.4466678"
       id="path4"
       sodipodi:nodetypes="cc" />
    <path
       style="fill:#000000;stroke:#000000;stroke-width:0.282001;stroke-linecap:round;stroke-linejoin:round;marker-start:url(#marker8);marker-end:url(#ConcaveTriangle);paint-order:stroke fill markers"
       d="M 35.130542,8.4760071 47.229828,28.551393"
       id="path5"
       sodipodi:nodetypes="cc" />
    <text
       xml:space="preserve"
       style="font-size:3.52777px;fill:#000000;stroke:none;stroke-width:0.28231;stroke-linecap:round;stroke-linejoin:round;paint-order:stroke fill markers"
       x="15.208322"
       y="32.591167"
       id="text6"><tspan
         sodipodi:role="line"
         id="tspan6"
         style="fill:#000000;stroke-width:0.28231"
         x="15.208322"
         y="32.591167">a</tspan></text>
    <text
       xml:space="preserve"
       style="font-size:3.52777px;fill:#00ff00;stroke:#ffffff;stroke-width:0.282001;stroke-linecap:round;stroke-linejoin:round;paint-order:stroke fill markers"
       x="47.990417"
       y="43.410603"
       id="text7"><tspan
         sodipodi:role="line"
         id="tspan7"
         style="stroke-width:0.282"
         x="47.990417"
         y="43.410603" /></text>
    <text
       xml:space="preserve"
       style="font-size:3.52777px;fill:#000000;stroke:none;stroke-width:0.28231;stroke-linecap:round;stroke-linejoin:round;paint-order:stroke fill markers"
       x="32.010769"
       y="6.2131743"
       id="text8"><tspan
         sodipodi:role="line"
         id="tspan8"
         style="fill:#000000;stroke-width:0.28231"
         x="32.010769"
         y="6.2131743">b</tspan></text>
    <text
       xml:space="preserve"
       style="font-size:3.52777px;fill:#000000;stroke:none;stroke-width:0.28231;stroke-linecap:round;stroke-linejoin:round;paint-order:stroke fill markers"
       x="47.692413"
       y="32.992828"
       id="text10"><tspan
         sodipodi:role="line"
         id="tspan10"
         style="fill:#000000;stroke-width:0.28231"
         x="47.692413"
         y="32.992828">c</tspan></text>
    <text
       xml:space="preserve"
       style="font-size:3.52777px;fill:#00ff00;stroke:#ffffff;stroke-width:0.282001;stroke-linecap:round;stroke-linejoin:round;paint-order:stroke fill markers"
       x="109.35318"
       y="56.21957"
       id="text11"><tspan
         sodipodi:role="line"
         id="tspan11"
         style="stroke-width:0.282"
         x="109.35318"
         y="56.21957" /></text>
    <text
       xml:space="preserve"
       style="font-size:3.52777px;fill:#000000;stroke:none;stroke-width:0.28231;stroke-linecap:round;stroke-linejoin:round;paint-order:stroke fill markers"
       x="31.57542"
       y="23.558327"
       id="text1"><tspan
         sodipodi:role="line"
         id="tspan1"
         style="fill:#000000;stroke-width:0.28231"
         x="31.57542"
         y="23.558327">d</tspan></text>
    <path
       style="fill:#000000;stroke:#000000;stroke-width:0.282001;stroke-linecap:round;stroke-linejoin:round;marker-start:url(#marker14);marker-end:url(#ConcaveTriangle);paint-order:stroke fill markers"
       d="M 32.728044,18.671407 32.94681,9.135892"
       id="path2"
       sodipodi:nodetypes="cc" />
    <path
       style="fill:#000000;stroke:#000000;stroke-width:0.282001;stroke-linecap:round;stroke-linejoin:round;marker-start:url(#marker8);marker-end:url(#ConcaveTriangle);paint-order:stroke fill markers"
       d="m 36.065964,24.357538 9.579048,5.571085"
       id="path3"
       sodipodi:nodetypes="cc" />
    <path
       style="fill:#000000;stroke:#000000;stroke-width:0.282001;stroke-linecap:round;stroke-linejoin:round;marker-start:url(#marker8);marker-end:url(#ConcaveTriangle);paint-order:stroke fill markers"
       d="M 19.394943,29.90161 29.598899,24.638599"
       id="path6"
       sodipodi:nodetypes="cc" />
    <path
       style="fill:#4d4d4d;stroke:#808080;stroke-width:0.282001;stroke-linecap:round;stroke-linejoin:round;marker-start:url(#marker10);marker-end:url(#ConcaveTriangle);paint-order:stroke fill markers"
       d="M 85.325474,29.293708 111.7619,29.71175"
       id="path9"
       sodipodi:nodetypes="cc" />
    <path
       style="fill:#000000;stroke:#000000;stroke-width:0.282001;stroke-linecap:round;stroke-linejoin:round;marker-start:url(#marker10);marker-end:url(#ConcaveTriangle);paint-order:stroke fill markers"
       d="M 83.91798,26.754904 97.447806,5.876479"
       id="path15"
       sodipodi:nodetypes="cc" />
    <path
       style="fill:#000000;stroke:#000000;stroke-width:0.282001;stroke-linecap:round;stroke-linejoin:round;marker-start:url(#marker10);marker-end:url(#ConcaveTriangle);paint-order:stroke fill markers"
       d="M 101.56519,6.0731764 113.49415,26.69548"
       id="path16"
       sodipodi:nodetypes="cc" />
    <text
       xml:space="preserve"
       style="font-size:3.52777px;fill:#000000;stroke:none;stroke-width:0.28231;stroke-linecap:round;stroke-linejoin:round;paint-order:stroke fill markers"
       x="81.192146"
       y="30.829964"
       id="text17"><tspan
         sodipodi:role="line"
         id="tspan17"
         style="fill:#000000;stroke-width:0.28231"
         x="81.192146"
         y="30.829964">a</tspan></text>
    <text
       xml:space="preserve"
       style="font-size:3.52777px;fill:#000000;stroke:none;stroke-width:0.28231;stroke-linecap:round;stroke-linejoin:round;paint-order:stroke fill markers"
       x="99.012878"
       y="3.4267876"
       id="text18"><tspan
         sodipodi:role="line"
         id="tspan18"
         style="fill:#000000;stroke-width:0.28231"
         x="99.012878"
         y="3.4267876">b</tspan></text>
    <text
       xml:space="preserve"
       style="font-size:3.52777px;fill:#000000;stroke:none;stroke-width:0.28231;stroke-linecap:round;stroke-linejoin:round;paint-order:stroke fill markers"
       x="114.72897"
       y="31.044697"
       id="text19"><tspan
         sodipodi:role="line"
         id="tspan19"
         style="fill:#000000;stroke-width:0.28231"
         x="114.72897"
         y="31.044697">c</tspan></text>
    <text
       xml:space="preserve"
       style="font-size:3.52777px;fill:#000000;stroke:none;stroke-width:0.28231;stroke-linecap:round;stroke-linejoin:round;paint-order:stroke fill markers"
       x="89.872681"
       y="37.676315"
       id="text20"><tspan
         sodipodi:role="line"
         id="tspan20"
         style="fill:#000000;stroke-width:0.28231"
         x="89.872681"
         y="37.676315">d</tspan></text>
    <path
       style="fill:#000000;stroke:#000000;stroke-width:0.282001;stroke-linecap:round;stroke-linejoin:round;marker-start:url(#marker10);marker-end:url(#ConcaveTriangle);paint-order:stroke fill markers"
       d="M 92.080509,32.598237 99.264566,6.5411645"
       id="path20"
       sodipodi:nodetypes="cc" />
    <path
       style="fill:#000000;stroke:#000000;stroke-width:0.282001;stroke-linecap:round;stroke-linejoin:round;marker-start:url(#marker10);marker-end:url(#ConcaveTriangle);paint-order:stroke fill markers"
       d="M 94.205711,36.001437 112.37344,31.375231"
       id="path21"
       sodipodi:nodetypes="cc" />
    <path
       style="fill:#000000;stroke:#000000;stroke-width:0.282001;stroke-linecap:round;stroke-linejoin:round;marker-start:url(#marker10);marker-end:url(#ConcaveTriangle);paint-order:stroke fill markers"
       d="m 84.798825,31.530421 3.202435,2.468646"
       id="path22"
       sodipodi:nodetypes="cc" />
    <text
       xml:space="preserve"
       style="font-size:7.15613px;line-height:5;fill:#000000;stroke:none;stroke-width:1.14408;stroke-linecap:round;stroke-linejoin:round;paint-order:stroke fill markers"
       x="61.443504"
       y="22.099363"
       id="text25"><tspan
         sodipodi:role="line"
         id="tspan25"
         style="stroke:none;stroke-width:1.14408"
         x="61.443504"
         y="22.099363">≡</tspan></text>
    <path
       id="path2-6"
       style="fill:#00ccff;stroke:none;stroke-width:0.580005;stroke-linecap:round;stroke-linejoin:round;paint-order:stroke fill markers"
       d="m 64.334943,11.657265 c -1.467272,-6.1e-5 -2.656747,1.189414 -2.656685,2.656686 -6.2e-5,1.467272 1.189413,2.656747 2.656685,2.656685 1.467272,6.2e-5 2.656747,-1.189413 2.656685,-2.656685 6.2e-5,-1.467272 -1.189413,-2.656747 -2.656685,-2.656686 z m 1.136882,0.838709 c 0.420623,1.4e-4 0.761571,0.341087 0.76171,0.761711 1.46e-4,0.420825 -0.340885,0.762087 -0.76171,0.762227 -0.421027,1.46e-4 -0.762374,-0.3412 -0.762228,-0.762227 1.39e-4,-0.420826 0.341403,-0.761857 0.762228,-0.761711 z m -1.812293,0.01964 c 0.420825,1.39e-4 0.761857,0.341402 0.761711,0.762227 -1.39e-4,0.420624 -0.341087,0.761572 -0.761711,0.761711 -0.420825,1.46e-4 -0.762088,-0.340885 -0.762227,-0.761711 -1.46e-4,-0.421026 0.3412,-0.762373 0.762227,-0.762227 z m 0.05701,0.699913 c -0.195225,-2.6e-5 -0.353493,0.158242 -0.353467,0.353467 -2.6e-5,0.195226 0.158242,0.353493 0.353467,0.353467 0.195225,2.6e-5 0.353492,-0.158242 0.353466,-0.353467 2.6e-5,-0.195225 -0.158241,-0.353493 -0.353466,-0.353467 z m 1.741495,0 c -0.195225,-2.6e-5 -0.353492,0.158242 -0.353466,0.353467 -2.6e-5,0.195225 0.158241,0.353493 0.353466,0.353467 0.195225,2.6e-5 0.353493,-0.158241 0.353467,-0.353467 2.6e-5,-0.195225 -0.158242,-0.353493 -0.353467,-0.353467 z"
       sodipodi:nodetypes="cccccsssssssssscccccccccc" />
    <path
       id="path11"
       style="fill:#ff6600;stroke:none;stroke-width:0.580005;stroke-linecap:round;stroke-linejoin:round;paint-order:stroke fill markers"
       d="m 86.280427,13.280458 c -1.467272,-6.1e-5 -2.656747,1.189414 -2.656685,2.656686 -6.2e-5,1.467272 1.189413,2.656747 2.656685,2.656685 1.467272,6.2e-5 2.656747,-1.189413 2.656685,-2.656685 6.2e-5,-1.467272 -1.189413,-2.656747 -2.656685,-2.656686 z m 1.136882,0.838709 c 0.420623,1.4e-4 0.761571,0.341087 0.76171,0.761711 1.46e-4,0.420825 -0.340885,0.762087 -0.76171,0.762227 -0.421027,1.46e-4 -0.762374,-0.3412 -0.762228,-0.762227 1.39e-4,-0.420826 0.341403,-0.761857 0.762228,-0.761711 z m -1.812293,0.01964 c 0.420825,1.39e-4 0.761857,0.341402 0.761711,0.762227 -1.39e-4,0.420624 -0.341087,0.761572 -0.761711,0.761711 -0.420825,1.46e-4 -0.762088,-0.340885 -0.762227,-0.761711 -1.46e-4,-0.421026 0.3412,-0.762373 0.762227,-0.762227 z m 0.221281,0.621294 c -0.195225,-2.6e-5 -0.353493,0.158242 -0.353467,0.353467 -2.6e-5,0.195226 0.158242,0.353493 0.353467,0.353467 0.195225,2.6e-5 0.353492,-0.158242 0.353466,-0.353467 2.6e-5,-0.195225 -0.158241,-0.353493 -0.353466,-0.353467 z m 1.741495,0 c -0.195225,-2.6e-5 -0.353492,0.158242 -0.353466,0.353467 -2.6e-5,0.195225 0.158241,0.353493 0.353466,0.353467 0.195225,2.6e-5 0.353493,-0.158241 0.353467,-0.353467 2.6e-5,-0.195225 -0.158242,-0.353493 -0.353467,-0.353467 z"
       sodipodi:nodetypes="cccccsssssssssscccccccccc" />
    <path
       id="path12"
       style="fill:#ff6600;stroke:none;stroke-width:0.580005;stroke-linecap:round;stroke-linejoin:round;paint-order:stroke fill markers"
       d="m 44.913221,13.940439 c -1.46727,-6.1e-5 -2.65674,1.189414 -2.65668,2.656686 -6e-5,1.467272 1.18941,2.656747 2.65668,2.656685 1.46727,6.2e-5 2.65675,-1.189413 2.65669,-2.656685 6e-5,-1.467272 -1.18942,-2.656747 -2.65669,-2.656686 z m 1.13688,0.838709 c 0.42063,1.4e-4 0.76158,0.341087 0.76171,0.761711 1.5e-4,0.420825 -0.34088,0.762087 -0.76171,0.762227 -0.42102,1.46e-4 -0.76237,-0.3412 -0.76222,-0.762227 1.4e-4,-0.420826 0.3414,-0.761857 0.76222,-0.761711 z m -1.81229,0.01964 c 0.42083,1.39e-4 0.76186,0.341402 0.76171,0.762227 -1.4e-4,0.420624 -0.34108,0.761572 -0.76171,0.761711 -0.42082,1.46e-4 -0.76209,-0.340885 -0.76223,-0.761711 -1.4e-4,-0.421026 0.3412,-0.762373 0.76223,-0.762227 z m -0.21751,0.550158 c -0.19522,-2.6e-5 -0.35349,0.158242 -0.35346,0.353467 -3e-5,0.195226 0.15824,0.353493 0.35346,0.353467 0.19523,2.6e-5 0.35349,-0.158242 0.35347,-0.353467 2e-5,-0.195225 -0.15824,-0.353493 -0.35347,-0.353467 z m 1.7415,0 c -0.19523,-2.6e-5 -0.35349,0.158242 -0.35347,0.353467 -2e-5,0.195225 0.15824,0.353493 0.35347,0.353467 0.19522,2.6e-5 0.35349,-0.158241 0.35346,-0.353467 3e-5,-0.195225 -0.15824,-0.353493 -0.35346,-0.353467 z"
       sodipodi:nodetypes="cccccsssssssssscccccccccc" />
    <path
       id="rect15"
       style="fill:#ff6600;stroke-width:0.204248;stroke-linecap:round;stroke-linejoin:round;stroke-dasharray:0.612743, 0.612743;paint-order:stroke fill markers"
       d="m 46.079011,5.4758002 c -1.12212,0 -2.02572,0.9036005 -2.02572,2.0257161 v 2.1822958 c 0,1.1221169 0.9036,2.0251989 2.02572,2.0251989 l 0.41754,2.046904 2.12029,-2.046904 h 4.38371 c 1.12211,0 2.02571,-0.903082 2.02571,-2.0251989 V 7.5015163 c 0,-1.1221156 -0.9036,-2.0257161 -2.02571,-2.0257161 z m 1.97197,1.3973307 c 0.33361,0 0.59732,0.076109 0.79168,0.2284098 0.19437,0.15085 0.29197,0.3552138 0.29197,0.6133993 0,0.1798596 -0.05153,0.3320783 -0.15451,0.4568197 -0.10298,0.1232908 -0.24975,0.208966 -0.43977,0.2568318 0.21032,0.044965 0.37447,0.138456 0.49196,0.2806031 0.11894,0.142147 0.17829,0.3177136 0.17829,0.5265828 0,0.3205562 -0.11026,0.5686325 -0.33073,0.7441406 -0.22047,0.175508 -0.53386,0.263033 -0.94,0.263033 -0.13634,0 -0.27714,-0.01378 -0.42219,-0.04134 -0.1436,-0.02611 -0.29222,-0.06571 -0.44597,-0.119372 V 9.6579739 c 0.12184,0.071074 0.25544,0.1244516 0.40049,0.1607137 0.14505,0.036262 0.29665,0.054777 0.45475,0.054777 0.2756,0 0.48531,-0.054512 0.62891,-0.1632976 0.14505,-0.108786 0.21755,-0.2669709 0.21755,-0.4743896 0,-0.1914634 -0.06767,-0.3406991 -0.20257,-0.4480347 -0.13344,-0.108786 -0.31981,-0.1632975 -0.55914,-0.1632975 h -0.37878 V 8.2632269 h 0.39635 c 0.21613,0 0.38151,-0.042579 0.4961,-0.1281575 0.11459,-0.087029 0.17156,-0.2122003 0.17156,-0.3746541 0,-0.1668053 -0.05934,-0.2944431 -0.17828,-0.3829224 -0.11749,-0.08993 -0.28647,-0.1348755 -0.50695,-0.1348755 -0.12039,0 -0.24926,0.013165 -0.38705,0.039274 -0.1378,0.026109 -0.2894,0.066838 -0.45475,0.1219564 V 7.0121405 c 0.1668,-0.046415 0.32262,-0.081179 0.46767,-0.1043864 0.1465,-0.023208 0.28432,-0.034623 0.41341,-0.034623 z m 1.95388,0.058394 h 0.90279 c 0.62951,0 1.09152,0.1312375 1.38596,0.3937744 0.29445,0.2610865 0.44184,0.6703308 0.44184,1.2273153 0,0.5598854 -0.14801,0.9709795 -0.4439,1.2335164 -0.2959,0.262537 -0.75729,0.393774 -1.3839,0.393774 h -0.90279 z m 0.43925,0.3612182 v 2.5259441 h 0.53072 c 0.4482,0 0.77598,-0.101307 0.9834,-0.3043742 0.20887,-0.2030673 0.31368,-0.5236534 0.31368,-0.9616984 0,-0.4351441 -0.10481,-0.7533637 -0.31368,-0.9549805 -0.20742,-0.2030673 -0.5352,-0.304891 -0.9834,-0.304891 z" />
    <path
       id="path13"
       style="fill:#ff6600;stroke-width:0.204248;stroke-linecap:round;stroke-linejoin:round;stroke-dasharray:0.612743, 0.612743;paint-order:stroke fill markers"
       d="m 78.891508,4.7472928 c -1.12212,0 -2.02572,0.9036005 -2.02572,2.0257161 v 2.1822958 c 0,1.1221173 0.9036,2.0251993 2.02572,2.0251993 l 4.569232,-0.01139 2.071997,2.098244 0.280311,-2.086854 c 1.12211,0 2.02571,-0.903082 2.02571,-2.0251993 V 6.7730089 c 0,-1.1221156 -0.9036,-2.0257161 -2.02571,-2.0257161 z m 1.97197,1.3973307 c 0.33361,0 0.59732,0.076109 0.79168,0.2284098 0.19437,0.15085 0.29197,0.3552138 0.29197,0.6133993 0,0.1798596 -0.05153,0.3320783 -0.15451,0.4568197 -0.10298,0.1232908 -0.24975,0.208966 -0.43977,0.2568318 0.21032,0.044965 0.37447,0.138456 0.49196,0.2806031 0.11894,0.142147 0.17829,0.3177136 0.17829,0.5265828 0,0.3205562 -0.11026,0.5686325 -0.33073,0.7441406 -0.22047,0.175508 -0.53386,0.263033 -0.94,0.263033 -0.13634,0 -0.27714,-0.01378 -0.42219,-0.04134 -0.1436,-0.02611 -0.29222,-0.0657 -0.44597,-0.119373 V 8.9294665 c 0.12184,0.071074 0.25544,0.1244516 0.40049,0.1607137 0.14505,0.036262 0.29665,0.054777 0.45475,0.054777 0.2756,0 0.48531,-0.054512 0.62891,-0.1632976 0.14505,-0.108786 0.21755,-0.2669709 0.21755,-0.4743896 0,-0.1914634 -0.06767,-0.3406991 -0.20257,-0.4480347 -0.13344,-0.108786 -0.31981,-0.1632975 -0.55914,-0.1632975 h -0.37878 V 7.5347195 h 0.39635 c 0.21613,0 0.38151,-0.042579 0.4961,-0.1281575 0.11459,-0.087029 0.17156,-0.2122003 0.17156,-0.3746541 0,-0.1668053 -0.05934,-0.2944431 -0.17828,-0.3829224 -0.11749,-0.08993 -0.28647,-0.1348755 -0.50695,-0.1348755 -0.12039,0 -0.24926,0.013165 -0.38705,0.039274 -0.1378,0.026109 -0.2894,0.066838 -0.45475,0.1219564 V 6.2836331 c 0.1668,-0.046415 0.32262,-0.081179 0.46767,-0.1043864 0.1465,-0.023208 0.28432,-0.034623 0.41341,-0.034623 z m 1.95388,0.058394 h 0.90279 c 0.62951,0 1.09152,0.1312375 1.38596,0.3937744 0.29445,0.2610865 0.44184,0.6703308 0.44184,1.2273153 0,0.5598854 -0.14801,0.9709795 -0.4439,1.2335164 -0.2959,0.262537 -0.75729,0.393775 -1.3839,0.393775 h -0.90279 z m 0.43925,0.3612182 v 2.5259441 h 0.53072 c 0.4482,0 0.77598,-0.101307 0.9834,-0.3043742 0.20887,-0.2030673 0.31368,-0.5236534 0.31368,-0.9616984 0,-0.4351441 -0.10481,-0.7533637 -0.31368,-0.9549805 -0.20742,-0.2030673 -0.5352,-0.304891 -0.9834,-0.304891 z"
       sodipodi:nodetypes="sssccccssssscscccssscccsscscsccscscsscccscscscsccccscscsc" />
  </g>
</svg>
