<?xml version="1.0" encoding="UTF-8" standalone="no"?>
<!-- Created with Inkscape (http://www.inkscape.org/) -->

<svg
   width="500"
   height="30"
   viewBox="0 0 132.29166 7.9374999"
   version="1.1"
   id="svg1"
   inkscape:version="1.3.1 (9b9bdc1480, 2023-11-25, custom)"
   sodipodi:docname="internal-observer.svg"
   xmlns:inkscape="http://www.inkscape.org/namespaces/inkscape"
   xmlns:sodipodi="http://sodipodi.sourceforge.net/DTD/sodipodi-0.dtd"
   xmlns="http://www.w3.org/2000/svg"
   xmlns:svg="http://www.w3.org/2000/svg">
  <sodipodi:namedview
     id="namedview1"
     pagecolor="#ffffff"
     bordercolor="#eeeeee"
     borderopacity="1"
     inkscape:showpageshadow="0"
     inkscape:pageopacity="0"
     inkscape:pagecheckerboard="0"
     inkscape:deskcolor="#505050"
     inkscape:document-units="mm"
     inkscape:zoom="1.4142136"
     inkscape:cx="204.35385"
     inkscape:cy="181.72644"
     inkscape:window-width="1914"
     inkscape:window-height="1033"
     inkscape:window-x="1920"
     inkscape:window-y="44"
     inkscape:window-maximized="1"
     inkscape:current-layer="layer1"
     showgrid="false" />
  <defs
     id="defs1" />
  <g
     inkscape:label="Слой 1"
     inkscape:groupmode="layer"
     id="layer1">
    <text
       xml:space="preserve"
       style="font-size:3.52777px;fill:#00ff00;stroke:#ffffff;stroke-width:0.282001;stroke-linecap:round;stroke-linejoin:round;paint-order:stroke fill markers"
       x="65.32296"
       y="62.654007"
       id="text2"><tspan
         sodipodi:role="line"
         id="tspan2"
         style="stroke-width:0.282"
         x="65.32296"
         y="62.654007" /></text>
    <text
       xml:space="preserve"
       style="font-size:3.52777px;fill:#00ff00;stroke:#ffffff;stroke-width:0.282001;stroke-linecap:round;stroke-linejoin:round;paint-order:stroke fill markers"
       x="47.990417"
       y="43.410603"
       id="text7"><tspan
         sodipodi:role="line"
         id="tspan7"
         style="stroke-width:0.282"
         x="47.990417"
         y="43.410603" /></text>
    <text
       xml:space="preserve"
       style="font-size:3.52777px;fill:#00ff00;stroke:#ffffff;stroke-width:0.282001;stroke-linecap:round;stroke-linejoin:round;paint-order:stroke fill markers"
       x="109.35318"
       y="56.21957"
       id="text11"><tspan
         sodipodi:role="line"
         id="tspan11"
         style="stroke-width:0.282"
         x="109.35318"
         y="56.21957" /></text>
    <path
       id="path12"
       style="fill:#ff6600;stroke:none;stroke-width:0.580005;stroke-linecap:round;stroke-linejoin:round;paint-order:stroke fill markers"
       d="m 67.771925,1.5327773 c -1.467268,-6.1e-5 -2.656745,1.1894151 -2.656685,2.6566861 -6e-5,1.46727 1.189417,2.656747 2.656685,2.656685 1.467269,6.2e-5 2.656746,-1.189415 2.656686,-2.656685 6e-5,-1.467271 -1.189417,-2.6567471 -2.656686,-2.6566861 z m 1.136882,0.8387091 c 0.42063,1.4e-4 0.761581,0.341087 0.761711,0.76171 1.5e-4,0.420825 -0.340881,0.762088 -0.761711,0.762228 -0.42102,1.46e-4 -0.762377,-0.341201 -0.762227,-0.762228 1.4e-4,-0.420825 0.341407,-0.761856 0.762227,-0.76171 z m -1.812292,0.01964 c 0.420829,1.39e-4 0.76186,0.341403 0.76171,0.762227 -1.4e-4,0.420624 -0.341081,0.761572 -0.76171,0.761711 -0.42082,1.46e-4 -0.762088,-0.340885 -0.762228,-0.761711 -1.4e-4,-0.421025 0.341198,-0.762373 0.762228,-0.762227 z m 0.197703,0.547512 c -0.19522,-2.6e-5 -0.353497,0.158242 -0.353467,0.353467 -3e-5,0.195226 0.158247,0.353493 0.353467,0.353467 0.19523,2.6e-5 0.353487,-0.158242 0.353467,-0.353467 2e-5,-0.195225 -0.158237,-0.353493 -0.353467,-0.353467 z m 1.326235,0.0028 c -0.19523,-2.6e-5 -0.353487,0.158242 -0.353467,0.353467 -2e-5,0.195225 0.158237,0.353493 0.353467,0.353467 0.195219,2.6e-5 0.353496,-0.158241 0.353466,-0.353467 3e-5,-0.195225 -0.158247,-0.353493 -0.353466,-0.353467 z m -1.463994,2.163175 h 0.716752 0.716236 c -1.01e-4,0.255817 -0.136596,0.492171 -0.358118,0.620118 -0.221616,0.127899 -0.494619,0.127899 -0.716235,0 -0.221721,-0.127815 -0.358427,-0.364194 -0.358635,-0.620118 z"
       sodipodi:nodetypes="cccccscsssssssscccccccccccccccc" />
  </g>
</svg>
